<svg width="359" height="360" viewBox="0 0 359 360" fill="none" xmlns="http://www.w3.org/2000/svg">
<path d="M169.375 334.268C262.918 334.268 338.749 324.372 338.749 312.165C338.749 299.958 262.918 290.063 169.375 290.063C75.8316 290.063 0 299.958 0 312.165C0 324.372 75.8316 334.268 169.375 334.268Z" fill="#92E3A9"/>
<g opacity="0.5" filter="url(#filter0_d_15_150)">
<path d="M169.375 334.268C262.918 334.268 338.749 324.372 338.749 312.165C338.749 299.958 262.918 290.063 169.375 290.063C75.8316 290.063 0 299.958 0 312.165C0 324.372 75.8316 334.268 169.375 334.268Z" fill="white"/>
</g>
<path d="M17.9209 286.135H339.003" stroke="#263238" stroke-miterlimit="10"/>
<path d="M321.12 110.107C321.047 110.107 320.976 110.083 320.918 110.04C300.443 96.256 273.607 93.8292 242.514 91.0216C222.264 89.1922 199.325 87.1164 174.564 81.6281C112.132 67.7992 77.2016 22.2204 76.8581 21.7575C76.8008 21.682 76.7742 21.5875 76.784 21.4933C76.7937 21.399 76.8389 21.3119 76.9104 21.2497C76.9903 21.1922 77.0894 21.1678 77.1868 21.1817C77.2843 21.1957 77.3725 21.2468 77.4331 21.3244C77.7841 21.7799 112.528 67.1495 174.714 80.9188C199.452 86.3996 222.368 88.4679 242.596 90.2973C273.764 93.1199 300.69 95.5243 321.314 109.443C321.396 109.499 321.453 109.585 321.473 109.683C321.492 109.781 321.473 109.882 321.418 109.965C321.382 110.01 321.336 110.045 321.285 110.07C321.233 110.094 321.177 110.107 321.12 110.107Z" fill="#92E3A9"/>
<path d="M310.442 121.577C310.367 121.577 310.293 121.554 310.233 121.51C289.758 107.725 262.929 105.299 231.829 102.491C211.578 100.662 188.64 98.5857 163.879 93.09C101.447 79.2611 66.5163 33.6823 66.1728 33.1969C66.1424 33.1581 66.1202 33.1135 66.1075 33.0659C66.0947 33.0182 66.0918 32.9685 66.0987 32.9197C66.1057 32.8709 66.1225 32.8239 66.148 32.7818C66.1736 32.7396 66.2074 32.703 66.2475 32.6743C66.2867 32.6448 66.3314 32.6234 66.3789 32.6113C66.4263 32.5991 66.4758 32.5964 66.5243 32.6033C66.5728 32.6103 66.6195 32.6267 66.6617 32.6517C66.7039 32.6766 66.7408 32.7097 66.7702 32.7489C67.1137 33.2044 101.865 78.5666 164.043 92.3433C188.781 97.8241 211.698 99.8925 231.926 101.722C263.093 104.544 290.019 106.949 310.643 120.867C310.726 120.923 310.783 121.01 310.802 121.107C310.822 121.205 310.802 121.307 310.748 121.39C310.717 121.444 310.672 121.49 310.619 121.523C310.565 121.555 310.504 121.574 310.442 121.577Z" fill="#92E3A9"/>
<path d="M299.756 133.039C299.681 133.039 299.608 133.016 299.547 132.971C279.073 119.187 252.244 116.76 221.144 113.953C200.893 112.123 177.954 110.048 153.194 104.552C90.7618 90.6931 55.831 45.1442 55.4875 44.6813C55.4581 44.642 55.4367 44.5974 55.4245 44.5499C55.4123 44.5024 55.4097 44.453 55.4166 44.4044C55.4235 44.3559 55.4399 44.3092 55.4649 44.267C55.4899 44.2248 55.523 44.188 55.5622 44.1586C55.6014 44.1291 55.646 44.1077 55.6935 44.0956C55.741 44.0834 55.7904 44.0807 55.839 44.0876C55.8875 44.0946 55.9342 44.111 55.9764 44.136C56.0186 44.161 56.0554 44.194 56.0849 44.2332C56.4284 44.6887 91.1799 90.0509 153.358 103.828C178.096 109.308 201.02 111.377 221.241 113.206C252.408 116.029 279.334 118.433 299.958 132.352C300.04 132.406 300.097 132.491 300.116 132.588C300.136 132.684 300.117 132.785 300.063 132.867C300.03 132.919 299.985 132.962 299.931 132.992C299.878 133.022 299.818 133.038 299.756 133.039Z" fill="#92E3A9"/>
<path d="M289.071 144.493C288.997 144.496 288.923 144.475 288.862 144.433C268.387 130.649 241.558 128.222 210.458 125.415C190.215 123.578 167.269 121.51 142.508 116.014C80.0764 102.185 45.1457 56.5986 44.8022 56.1431C44.7428 56.0639 44.7173 55.9644 44.7313 55.8663C44.7453 55.7683 44.7976 55.6799 44.8769 55.6204C44.9561 55.561 45.0556 55.5355 45.1537 55.5495C45.2517 55.5635 45.3401 55.6159 45.3995 55.6951C45.743 56.1506 80.4946 101.513 142.673 115.289C167.411 120.77 190.335 122.839 210.555 124.668C241.723 127.483 268.649 129.895 289.28 143.814C289.361 143.869 289.416 143.955 289.434 144.051C289.453 144.148 289.432 144.247 289.377 144.329C289.344 144.38 289.299 144.422 289.245 144.45C289.192 144.479 289.132 144.494 289.071 144.493Z" fill="#92E3A9"/>
<path d="M102.754 43.2924C102.754 43.2924 99.3713 44.4647 100.514 45.2413C101.656 46.0178 105.449 56.0162 104.665 57.3155C103.881 58.6147 101.425 54.3287 99.991 55.7549C98.5573 57.1811 100.641 60.6906 102.851 60.4292C105.061 60.1679 106.099 57.9651 105.576 55.2023C105.054 52.4395 103.269 48.131 103.045 47.1902C102.821 46.2493 103.829 45.764 105.382 46.6675C106.935 47.571 109.668 46.0178 110.452 44.3303C111.236 42.6428 110.579 39.7903 110.579 39.7903C110.579 39.7903 111.094 41.2165 108.503 41.8662C105.912 42.5158 103.657 42.9041 102.754 43.2924Z" fill="#92E3A9"/>
<path d="M87.7301 88.1991C87.7301 88.1991 84.355 89.3714 85.49 90.148C86.625 90.9246 90.4257 100.923 89.6492 102.222C88.8726 103.521 86.401 99.2354 84.9748 100.662C83.5486 102.088 85.6244 105.597 87.8272 105.336C90.03 105.075 91.0754 102.872 90.5601 100.109C90.0449 97.3462 88.223 92.9705 87.9616 92.0596C87.7003 91.1486 88.7083 90.6334 90.2988 91.5369C91.8893 92.4404 94.5849 90.8872 95.3615 89.1997C96.138 87.5121 95.4884 84.6597 95.4884 84.6597C95.4884 84.6597 96.0111 86.0859 93.4126 86.7356C90.814 87.3852 88.6411 87.8108 87.7301 88.1991Z" fill="#92E3A9"/>
<path d="M294.291 99.8626C292.598 99.0028 290.955 98.048 289.37 97.0027C286.98 95.4048 285.636 96.1739 285.98 97.2342C286.323 98.2945 284.27 105.814 281.208 109.786C278.147 113.759 278.431 109.226 276.123 108.442C273.816 107.658 272.569 109.936 274.339 112.579C276.108 115.222 280.111 114.423 280.641 112.803C281.171 111.183 284.919 104.081 286.032 102.349C287.145 100.617 287.966 100.714 289.982 102.722C290.843 103.631 291.916 104.311 293.104 104.702C294.293 105.093 295.56 105.183 296.792 104.963C296.792 104.963 292.663 112.878 291.401 115.416C290.139 117.955 289.094 121.166 287.234 121.099C285.375 121.032 283.277 117.365 281.798 119.605C280.32 121.846 284.733 125.661 287.107 124.578C289.482 123.496 290.938 118.523 292.7 115.088C294.462 111.653 299.562 102.603 299.256 101.311C298.95 100.019 296.576 101.349 294.291 99.8626Z" fill="#92E3A9"/>
<path d="M246.412 115.088C245.215 114.479 244.053 113.803 242.932 113.064C241.237 111.937 240.311 112.482 240.535 113.229C240.759 113.975 239.326 119.299 237.16 122.107C234.995 124.914 235.197 121.711 233.561 121.159C231.926 120.606 231.052 122.219 232.307 124.086C233.561 125.952 236.384 125.385 236.787 124.242C237.907 121.709 239.178 119.245 240.595 116.865C241.387 115.655 241.969 115.708 243.395 117.126C244.006 117.766 244.765 118.245 245.605 118.52C246.446 118.795 247.341 118.857 248.212 118.702C248.212 118.702 245.292 124.295 244.396 126.079C243.5 127.864 242.768 130.149 241.409 130.104C240.05 130.059 238.616 127.446 237.571 129.059C236.526 130.672 239.647 133.345 241.305 132.576C242.962 131.807 244.015 128.297 245.255 125.855C246.494 123.414 250.108 117.029 249.892 116.148C249.675 115.267 248.047 116.141 246.412 115.088Z" fill="#92E3A9"/>
<path d="M258.195 126.042C257.295 125.592 256.42 125.093 255.574 124.549C254.297 123.697 253.595 124.108 253.767 124.668C253.939 125.228 252.856 129.245 251.221 131.388C249.585 133.531 249.727 131.082 248.51 130.642C247.293 130.201 246.614 131.441 247.562 132.844C248.51 134.248 250.638 133.83 250.915 132.964C251.763 131.055 252.723 129.198 253.789 127.401C254.387 126.49 254.827 126.527 255.903 127.603C256.361 128.086 256.933 128.448 257.567 128.655C258.201 128.862 258.876 128.909 259.532 128.79C259.532 128.79 257.329 133.009 256.657 134.353C255.985 135.697 255.425 137.422 254.417 137.384C253.409 137.347 252.311 135.383 251.519 136.6C250.728 137.818 253.088 139.826 254.349 139.251C255.611 138.676 256.395 136.025 257.336 134.189C258.277 132.352 261.003 127.535 260.838 126.841C260.674 126.147 259.412 126.834 258.195 126.042Z" fill="#92E3A9"/>
<path d="M85.602 43.2028C84.4113 42.5944 83.2547 41.9213 82.1373 41.1867C80.4423 40.0517 79.5164 40.5968 79.7404 41.3435C79.9644 42.0902 78.5308 47.4142 76.3653 50.2293C74.1999 53.0443 74.4015 49.8261 72.7662 49.2735C71.1309 48.7209 70.2573 50.3413 71.5117 52.2006C72.7662 54.0599 75.5887 53.4998 75.992 52.3574C77.1117 49.8238 78.3834 47.3602 79.8002 44.98C80.5917 43.7703 81.1741 43.8226 82.6003 45.2413C83.2037 45.8753 83.9541 46.3507 84.785 46.6255C85.616 46.9003 86.5018 46.966 87.3643 46.8168C87.3643 46.8168 84.4372 52.4097 83.5486 54.1943C82.66 55.9789 81.9208 58.2638 80.5618 58.219C79.2028 58.1742 77.7691 55.5607 76.7237 57.1736C75.6783 58.7865 78.7996 61.4597 80.4572 60.6906C82.1149 59.9215 83.1678 56.412 84.4073 53.9703C85.6468 51.5285 89.2609 45.1368 89.0443 44.2631C88.8278 43.3895 87.2149 44.2557 85.602 43.2028Z" fill="#92E3A9"/>
<path d="M323.785 190.146C323.71 190.146 323.638 190.123 323.576 190.079C300.227 174.354 269.627 171.591 234.196 168.388C211.115 166.297 184.958 163.907 156.703 157.672C119.51 149.459 91.2098 131.321 74.0207 117.582C55.3904 102.685 45.4219 89.5581 45.3249 89.4312C45.2955 89.3919 45.2741 89.3473 45.2619 89.2998C45.2497 89.2523 45.247 89.2029 45.254 89.1543C45.2609 89.1058 45.2773 89.0591 45.3023 89.0169C45.3273 88.9747 45.3603 88.9379 45.3995 88.9085C45.4388 88.8791 45.4834 88.8577 45.5309 88.8455C45.5784 88.8333 45.6278 88.8306 45.6764 88.8376C45.7249 88.8445 45.7716 88.8609 45.8138 88.8859C45.856 88.9109 45.8928 88.9439 45.9222 88.9831C46.0193 89.1101 55.943 102.177 74.506 117.014C91.6354 130.701 119.823 148.742 156.86 156.948C185.07 163.198 211.205 165.558 234.263 167.641C269.799 170.859 300.481 173.614 323.994 189.459C324.077 189.516 324.134 189.602 324.153 189.7C324.173 189.797 324.153 189.899 324.099 189.982C324.064 190.032 324.017 190.074 323.962 190.102C323.907 190.131 323.847 190.146 323.785 190.146Z" fill="#92E3A9"/>
<path d="M311.607 203.214C311.532 203.214 311.458 203.191 311.398 203.147C288.041 187.421 257.441 184.658 222.017 181.455C198.937 179.364 172.772 176.975 144.517 170.74C107.331 162.526 79.0311 144.388 61.8419 130.649C43.2117 115.752 33.2432 102.625 33.1387 102.498C33.0812 102.419 33.0568 102.32 33.0707 102.222C33.0846 102.125 33.1358 102.036 33.2134 101.976C33.2926 101.916 33.3921 101.891 33.4902 101.905C33.5882 101.919 33.6766 101.971 33.736 102.05C33.8331 102.177 43.7643 115.245 62.3273 130.082C79.4492 143.769 107.645 161.809 144.681 170.015C172.892 176.265 199.026 178.625 222.084 180.708C257.613 183.926 288.302 186.682 311.808 202.527C311.876 202.57 311.928 202.635 311.956 202.71C311.984 202.786 311.987 202.868 311.964 202.946C311.941 203.023 311.894 203.091 311.83 203.139C311.765 203.187 311.687 203.214 311.607 203.214Z" fill="#92E3A9"/>
<path d="M299.428 216.281C299.353 216.281 299.28 216.257 299.219 216.214C275.862 200.458 245.262 197.726 209.824 194.522C186.743 192.431 160.586 190.042 132.331 183.807C95.1374 175.593 66.8374 157.456 49.6483 143.716C30.9807 128.82 21.0496 115.693 20.9525 115.566C20.9231 115.527 20.9017 115.482 20.8895 115.434C20.8773 115.387 20.8746 115.337 20.8816 115.289C20.8885 115.24 20.9049 115.194 20.9299 115.152C20.9549 115.109 20.9879 115.072 21.0272 115.043C21.0664 115.014 21.111 114.992 21.1585 114.98C21.206 114.968 21.2554 114.965 21.304 114.972C21.3525 114.979 21.3992 114.996 21.4414 115.02C21.4836 115.045 21.5204 115.079 21.5499 115.118C21.6469 115.245 31.5706 128.312 50.1336 143.149C67.263 156.836 95.4511 174.876 132.488 183.083C160.698 189.333 186.833 191.692 209.891 193.775C245.426 196.994 276.108 199.749 299.622 215.594C299.704 215.65 299.762 215.736 299.781 215.834C299.801 215.932 299.781 216.033 299.727 216.117C299.693 216.165 299.648 216.205 299.596 216.233C299.545 216.262 299.487 216.278 299.428 216.281Z" fill="#92E3A9"/>
<path d="M287.242 229.348C287.167 229.349 287.093 229.325 287.033 229.281C263.676 213.556 233.076 210.793 197.652 207.589C174.572 205.499 148.407 203.109 120.152 196.874C82.9662 188.661 54.6661 170.523 37.477 156.784C18.8468 141.887 8.8783 128.76 8.77376 128.633C8.71624 128.553 8.69188 128.454 8.70581 128.357C8.71973 128.259 8.77084 128.171 8.84843 128.11C8.92765 128.051 9.02722 128.025 9.12524 128.039C9.22327 128.053 9.31171 128.106 9.37112 128.185C9.4682 128.312 19.3993 141.379 37.9624 156.216C55.0843 169.903 83.2798 187.944 120.316 196.15C148.527 202.4 174.661 204.759 197.719 206.843C233.248 210.061 263.937 212.816 287.451 228.661C287.532 228.719 287.588 228.805 287.606 228.903C287.624 229.001 287.603 229.102 287.548 229.184C287.514 229.234 287.468 229.275 287.415 229.304C287.362 229.333 287.302 229.348 287.242 229.348Z" fill="#92E3A9"/>
<path d="M84.0713 158.89C84.0713 158.89 80.2183 160.226 81.5474 161.13C82.8766 162.033 87.1776 173.413 86.289 174.899C85.4004 176.385 82.5555 171.494 80.9575 173.122C79.3596 174.749 81.7042 178.744 84.2132 178.446C86.7221 178.147 87.9467 175.638 87.3269 172.524C86.7072 169.411 84.6612 164.385 84.3401 163.347C84.019 162.309 85.2287 161.72 87.0058 162.757C88.783 163.795 91.8893 162.011 92.7779 160.092C93.6664 158.173 92.9272 154.91 92.9272 154.91C92.9272 154.91 93.5171 156.537 90.5601 157.277C87.6032 158.016 85.1241 158.449 84.0713 158.89Z" fill="#92E3A9"/>
<path d="M255.007 160.226C255.007 160.226 251.161 161.563 252.49 162.466C253.819 163.37 258.12 174.749 257.232 176.228C256.343 177.706 253.498 172.823 251.9 174.451C250.302 176.079 252.647 180.081 255.156 179.782C257.665 179.484 258.889 176.967 258.262 173.861C257.635 170.755 255.596 165.722 255.275 164.684C254.954 163.646 256.164 163.056 257.941 164.094C259.718 165.132 262.825 163.347 263.713 161.428C264.602 159.509 263.862 156.246 263.862 156.246C263.862 156.246 264.452 157.874 261.495 158.613C258.538 159.352 256.044 159.786 255.007 160.226Z" fill="#92E3A9"/>
<path d="M236.794 197.882C236.794 197.882 232.941 199.219 234.278 200.122C235.615 201.026 239.901 212.406 239.012 213.899C238.124 215.393 235.316 210.494 233.681 212.122C232.045 213.75 234.427 217.745 236.944 217.446C239.46 217.147 240.64 214.638 240.05 211.525C239.46 208.411 237.384 203.386 237.063 202.348C236.742 201.31 237.952 200.72 239.729 201.758C241.506 202.796 244.62 201.011 245.509 199.092C246.397 197.173 245.65 193.91 245.65 193.91C245.65 193.91 246.248 195.538 243.283 196.277C240.319 197.016 237.832 197.472 236.794 197.882Z" fill="#92E3A9"/>
<path d="M64.5226 136.481C62.5958 135.509 60.7237 134.432 58.9149 133.255C56.1819 131.426 54.6885 132.299 55.0469 133.517C55.4054 134.734 53.0981 143.291 49.6109 147.831C46.1238 152.371 46.4375 147.181 43.8091 146.293C41.1807 145.404 39.7545 148.01 41.778 151.012C43.8016 154.014 48.3565 153.11 48.9538 151.266C49.5512 149.421 53.8373 141.327 55.0992 139.371C56.3611 137.414 57.3393 137.504 59.5794 139.796C60.5612 140.829 61.7841 141.601 63.1382 142.045C64.4924 142.488 65.9354 142.588 67.3377 142.335C67.3377 142.335 62.6633 151.325 61.2296 154.2C59.796 157.075 58.6012 160.764 56.4731 160.689C54.345 160.614 51.9929 156.403 50.2755 159.001C48.5581 161.6 53.6282 165.908 56.3313 164.676C59.0343 163.444 60.707 157.777 62.7081 153.857C64.7093 149.937 70.5336 139.625 70.1751 138.176C69.8167 136.727 67.1211 138.176 64.5226 136.481Z" fill="#92E3A9"/>
<path d="M282.791 179.491C281.429 178.795 280.105 178.025 278.826 177.184C276.9 175.892 275.84 176.512 276.093 177.37C276.347 178.229 274.72 184.285 272.248 187.488C269.776 190.692 270.008 187.033 268.149 186.405C266.289 185.778 265.281 187.623 266.707 189.743C268.134 191.864 271.367 191.237 271.785 189.922C273.063 187.033 274.514 184.222 276.131 181.507C277.027 180.133 277.699 180.193 279.327 181.813C280.021 182.544 280.886 183.09 281.844 183.403C282.803 183.715 283.823 183.785 284.815 183.605C284.815 183.605 281.507 190.005 280.469 192.021C279.431 194.037 278.61 196.658 277.102 196.605C275.593 196.553 273.913 193.574 272.718 195.418C271.524 197.263 275.093 200.302 277.004 199.428C278.916 198.554 280.096 194.545 281.485 191.774C282.874 189.004 287.018 181.709 286.771 180.663C286.525 179.618 284.636 180.686 282.791 179.491Z" fill="#92E3A9"/>
<path d="M296.202 191.976C295.174 191.453 294.177 190.872 293.215 190.236C291.759 189.265 290.975 189.736 291.154 190.378C291.334 191.02 290.117 195.605 288.257 198.009C286.398 200.414 286.562 197.666 285.166 197.188C283.77 196.71 283 198.106 284.083 199.704C285.166 201.302 287.585 200.824 287.906 199.846C288.872 197.667 289.966 195.548 291.184 193.499C291.856 192.461 292.364 192.506 293.589 193.731C294.113 194.28 294.765 194.692 295.487 194.928C296.209 195.163 296.978 195.217 297.725 195.082C297.725 195.082 295.216 199.891 294.447 201.422C293.678 202.952 293.051 204.924 291.916 204.879C290.781 204.834 289.512 202.594 288.616 203.983C287.72 205.372 290.4 207.664 291.841 206.97C293.283 206.275 294.171 203.288 295.239 201.198C296.307 199.107 299.413 193.611 299.226 192.827C299.04 192.043 297.591 192.879 296.202 191.976Z" fill="#92E3A9"/>
<path d="M55.256 113.916C53.8919 113.219 52.5682 112.446 51.291 111.601C49.3571 110.309 48.3042 110.929 48.5506 111.787C48.797 112.646 47.1767 118.702 44.7126 121.913C42.2485 125.124 42.4725 121.45 40.6057 120.823C38.739 120.195 37.7384 122.04 39.172 124.16C40.6057 126.281 43.824 125.654 44.2496 124.34C45.5234 121.45 46.9748 118.642 48.5954 115.932C49.4915 114.55 50.156 114.61 51.7839 116.23C52.4784 116.961 53.3436 117.507 54.3016 117.82C55.2597 118.132 56.2805 118.202 57.2721 118.022C57.2721 118.022 53.9418 124.399 52.9263 126.438C51.9108 128.476 51.067 131.075 49.5587 131.023C48.0503 130.97 46.3777 127.991 45.183 129.835C43.9883 131.68 47.55 134.719 49.4616 133.845C51.3732 132.971 52.553 128.969 53.9418 126.191C55.3307 123.414 59.4749 116.126 59.2285 115.088C58.9821 114.05 57.0929 115.11 55.256 113.916Z" fill="#92E3A9"/>
<path d="M47.789 259.523C47.789 259.523 27.9939 224.786 32.5563 215.952C37.1186 207.119 48.7896 223.016 48.7896 223.016C48.7896 223.016 38.6419 190.632 44.2198 176.504C49.7976 162.377 59.4376 176.504 59.9453 186.51C60.4531 196.516 57.9143 213.6 57.9143 213.6C57.9143 213.6 61.9764 178.266 71.6088 188.87C81.2413 199.473 59.4376 234.807 59.4376 234.807C59.4376 234.807 74.1476 226.593 73.6249 237.166C73.1022 247.74 55.8907 257.208 55.8907 257.208" fill="#92E3A9"/>
<path d="M47.9383 253.049C47.9383 253.049 29.6366 235.972 38.5523 228.318C47.4679 220.664 52.1647 236.532 52.1647 236.532C52.1647 236.532 42.3082 187.69 58.2428 185.92C74.1775 184.15 62.4692 228.318 62.4692 228.318C62.4692 228.318 76.0816 209.479 75.1631 224.786C74.2447 240.093 54.0464 253.049 54.0464 253.049" stroke="#263238" stroke-miterlimit="10"/>
<path d="M56.9361 249.942L44.5632 236.539" stroke="#263238" stroke-miterlimit="10"/>
<path d="M54.3525 250.973L57.7052 211.793" stroke="#263238" stroke-miterlimit="10"/>
<path d="M53.8373 248.135L64.9258 233.448" stroke="#263238" stroke-miterlimit="10"/>
<path d="M69.869 245.402H35.6551L39.075 285.762H66.4491L69.869 245.402Z" fill="#263238"/>
<path d="M130.673 197.793C130.673 197.793 134.085 290.167 130.673 307.319C127.261 324.471 112.663 325.763 79.2028 323.194C45.743 320.625 -3.59911 315.451 18.7049 306.49C41.0089 297.53 107.055 299.628 101.477 305.206C95.8991 310.784 65.0229 309.066 56.0177 305.639C47.0124 302.212 92.0386 291.056 116.06 294.058C140.081 297.059 153.395 307.782 211.272 322.791C269.149 337.799 311.203 321.073 309.919 309.499C308.635 297.926 272.181 297.455 258.882 297.455" stroke="#263238" stroke-width="2" stroke-linecap="round" stroke-linejoin="round"/>
<path d="M197.13 250.241L215.357 245.029L271.822 249.046L261.354 254.617L197.13 250.241Z" fill="#666666" stroke="#263238" stroke-linecap="round" stroke-linejoin="round"/>
<path d="M271.822 249.046L271.374 309.119L260.353 318.116L261.354 254.617L271.822 249.046Z" fill="#2B2B2B" stroke="#263238" stroke-linecap="round" stroke-linejoin="round"/>
<path d="M199.22 308.641L200.079 310.605L203.268 311.09L205.067 309.373L199.22 308.641Z" fill="#263238" stroke="#263238" stroke-linecap="round" stroke-linejoin="round"/>
<path d="M252.864 316.854L253.715 318.818L256.903 319.304L258.703 317.586L252.864 316.854Z" fill="#263238" stroke="#263238" stroke-linecap="round" stroke-linejoin="round"/>
<path d="M197.13 250.241L196.256 308.014L260.353 318.116L261.354 254.617L197.13 250.241Z" fill="#404040" stroke="#263238" stroke-linecap="round" stroke-linejoin="round"/>
<path d="M202.23 255.7L201.498 304.183L255.275 312.658L256.119 259.373L202.23 255.7Z" fill="black" stroke="#263238" stroke-linecap="round" stroke-linejoin="round"/>
<path d="M204.619 303.138L255.298 311.127L256.119 259.373L205.328 255.909L204.619 303.138Z" fill="#263238" stroke="#263238" stroke-linecap="round" stroke-linejoin="round"/>
<path d="M205.194 265.123L255.955 269.797L256.119 259.373L205.328 255.909L205.194 265.123Z" fill="#92E3A9" stroke="#263238" stroke-linecap="round" stroke-linejoin="round"/>
<path d="M213.893 260.553C213.893 261.033 213.751 261.502 213.484 261.901C213.217 262.3 212.838 262.611 212.395 262.795C211.952 262.979 211.464 263.027 210.993 262.933C210.522 262.84 210.09 262.608 209.75 262.269C209.411 261.93 209.18 261.497 209.086 261.027C208.993 260.556 209.041 260.068 209.224 259.624C209.408 259.181 209.719 258.802 210.118 258.535C210.517 258.269 210.986 258.126 211.466 258.126C211.785 258.125 212.101 258.187 212.396 258.309C212.691 258.431 212.959 258.609 213.185 258.835C213.41 259.06 213.589 259.328 213.71 259.623C213.832 259.918 213.894 260.234 213.893 260.553Z" fill="#263238" stroke="#263238" stroke-linecap="round" stroke-linejoin="round"/>
<path d="M220.486 263.674C221.827 263.674 222.913 262.588 222.913 261.248C222.913 259.907 221.827 258.821 220.486 258.821C219.146 258.821 218.06 259.907 218.06 261.248C218.06 262.588 219.146 263.674 220.486 263.674Z" fill="#263238" stroke="#263238" stroke-linecap="round" stroke-linejoin="round"/>
<path d="M231.926 261.942C231.926 262.422 231.784 262.891 231.517 263.29C231.25 263.689 230.871 264 230.428 264.184C229.984 264.368 229.497 264.416 229.026 264.322C228.555 264.229 228.123 263.997 227.783 263.658C227.444 263.319 227.213 262.886 227.119 262.415C227.025 261.945 227.073 261.457 227.257 261.013C227.441 260.57 227.752 260.191 228.151 259.924C228.55 259.658 229.019 259.515 229.499 259.515C229.818 259.514 230.134 259.576 230.429 259.698C230.724 259.82 230.992 259.998 231.217 260.224C231.443 260.449 231.622 260.717 231.743 261.012C231.865 261.307 231.927 261.623 231.926 261.942Z" fill="#263238" stroke="#263238" stroke-linecap="round" stroke-linejoin="round"/>
<path d="M240.946 262.636C240.946 263.116 240.804 263.586 240.537 263.985C240.27 264.384 239.891 264.695 239.448 264.878C239.005 265.062 238.517 265.11 238.046 265.017C237.575 264.923 237.143 264.692 236.803 264.352C236.464 264.013 236.233 263.581 236.139 263.11C236.046 262.639 236.094 262.151 236.277 261.708C236.461 261.264 236.772 260.885 237.171 260.619C237.57 260.352 238.039 260.21 238.519 260.21C238.838 260.209 239.154 260.271 239.449 260.392C239.744 260.514 240.012 260.693 240.238 260.918C240.463 261.144 240.642 261.412 240.763 261.707C240.885 262.001 240.947 262.317 240.946 262.636Z" fill="#263238" stroke="#263238" stroke-linecap="round" stroke-linejoin="round"/>
<path d="M222.406 248.666V247.172L225.206 246.455L245.635 247.889L245.396 249.323L243.425 250.234L222.406 248.666Z" fill="#263238"/>
<path d="M200.161 231.917C200.161 231.917 195.801 239.556 196.346 241.467C196.891 243.379 205.896 245.014 209.988 247.74C214.08 250.465 217.895 251.287 220.352 250.465C222.809 249.644 224.989 249.92 223.899 246.918C222.809 243.917 219.531 244.469 217.082 243.103C214.632 241.736 207.793 234.508 207.247 233.687C206.702 232.865 200.161 231.917 200.161 231.917Z" fill="#92E3A9" stroke="#263238" stroke-linecap="round" stroke-linejoin="round"/>
<path d="M208.143 234.934C208.143 234.934 206.762 237.697 205.844 237.921" stroke="#263238" stroke-linecap="round" stroke-linejoin="round"/>
<path d="M209.756 236.547C209.756 236.547 209.756 239.302 208.375 239.996" stroke="#263238" stroke-linecap="round" stroke-linejoin="round"/>
<path d="M212.512 239.533C212.512 239.533 212.975 240.22 211.593 241.37" stroke="#263238" stroke-linecap="round" stroke-linejoin="round"/>
<path d="M215.05 241.602C215.05 241.602 214.819 241.833 213.438 242.983" stroke="#263238" stroke-linecap="round" stroke-linejoin="round"/>
<path d="M217.866 243.461C217.451 243.726 217.091 244.068 216.805 244.469C216.052 245.442 215.496 246.553 215.17 247.74C212.136 245.514 208.835 243.677 205.343 242.274C202.521 241.1 199.6 240.18 196.614 239.526C196.369 240.139 196.277 240.803 196.346 241.46C196.891 243.364 205.896 245.007 209.988 247.732C214.08 250.458 217.895 251.279 220.352 250.458C222.809 249.636 224.989 249.913 223.899 246.911C222.921 244.23 220.188 244.38 217.866 243.461Z" fill="white" stroke="#263238" stroke-linecap="round" stroke-linejoin="round"/>
<path d="M118.688 120.472L114.865 138.99L116.926 138.691L121.922 121.943L118.688 120.472Z" fill="#263238" stroke="#263238" stroke-linecap="round" stroke-linejoin="round"/>
<path d="M149.594 310.261C150.021 311.854 150.611 313.398 151.357 314.868C152.245 316.287 165.074 323.082 164.357 326.263C164.088 327.495 163.11 329.295 157.233 329.653C151.357 330.011 145.719 325.613 142.986 324.127C138.723 321.82 137.998 320.745 138.506 318.43C139.014 316.115 141.179 308.275 141.179 308.275C143.913 309.211 146.731 309.876 149.594 310.261Z" fill="#92E3A9" stroke="#263238" stroke-linecap="round" stroke-linejoin="round"/>
<path d="M144.689 314.943C145.489 314.301 146.411 313.828 147.399 313.552C148.387 313.276 149.421 313.203 150.438 313.338" stroke="#263238" stroke-linecap="round" stroke-linejoin="round"/>
<path d="M146.294 316.324C146.294 316.324 149.057 314.323 151.357 314.868" stroke="#263238" stroke-linecap="round" stroke-linejoin="round"/>
<path d="M148.594 318.169C148.594 318.169 152.044 316.093 154.112 317.243" stroke="#263238" stroke-linecap="round" stroke-linejoin="round"/>
<path d="M151.357 320.006C151.357 320.006 154.344 318.393 156.643 319.087" stroke="#263238" stroke-linecap="round" stroke-linejoin="round"/>
<path d="M143.158 314.95C143.158 316.28 142.523 317.362 141.739 317.362C140.955 317.362 140.313 316.28 140.313 314.95C140.313 313.621 140.948 312.546 141.739 312.546C142.531 312.546 143.158 313.629 143.158 314.95Z" fill="white" stroke="#263238" stroke-linecap="round" stroke-linejoin="round"/>
<path d="M161.564 322.253C159.981 322.253 157.592 322.544 156.337 324.127C154.373 326.621 154.202 327.338 154.202 327.338C151.046 325.098 147.712 323.12 144.233 321.424C142.123 320.476 140.265 319.043 138.812 317.243C138.693 317.698 138.596 318.094 138.528 318.4C137.998 320.715 138.723 321.79 143.009 324.098C145.742 325.591 151.379 329.974 157.256 329.623C163.132 329.272 164.11 327.465 164.379 326.233C164.596 325.21 163.356 323.762 161.564 322.253Z" fill="white" stroke="#263238" stroke-linecap="round" stroke-linejoin="round"/>
<path d="M158.04 63.5878C158.04 63.5878 170.883 65.1932 172.974 69.7779C175.065 74.3627 183.525 111.519 184.212 113.58C184.899 115.64 202.095 119.314 212.422 119.314C222.749 119.314 218.612 120.464 215.409 122.525C212.206 124.586 202.566 126.886 192.702 128.26C182.838 129.634 176.192 128.715 173.213 124.362C170.233 120.009 165.835 98.9068 162.856 84.7195C159.877 70.5321 158.04 63.5878 158.04 63.5878Z" fill="white" stroke="#263238" stroke-linecap="round" stroke-linejoin="round"/>
<path d="M172.944 69.7854C170.883 65.2007 158.01 63.5952 158.01 63.5952C158.01 63.5952 159.839 70.4724 162.826 84.6971C163.797 89.3416 164.924 94.7253 166.097 100.019C167.06 99.8626 168.18 99.6535 169.472 99.3698C172.66 98.6754 176.76 96.3158 179.515 94.5461C176.969 83.8608 174.042 72.2197 172.944 69.7854Z" fill="#92E3A9" stroke="#263238" stroke-linecap="round" stroke-linejoin="round"/>
<path d="M165.186 95.7184C165.738 98.2945 166.313 100.901 166.896 103.439C171.782 102.338 176.314 100.027 180.075 96.719C179.552 94.561 179.015 92.3283 178.469 90.1181C174.546 93.0071 169.994 94.9262 165.186 95.7184Z" fill="#263238" stroke="#263238" stroke-linecap="round" stroke-linejoin="round"/>
<path d="M229.141 110.891C229.141 110.891 231.56 105.664 231.821 105.358C232.083 105.052 238.183 104.612 236.578 106.74C236.369 107.009 232.553 107.531 232.553 107.531L231.642 109.674L229.141 110.891Z" fill="white" stroke="#263238" stroke-linecap="round" stroke-linejoin="round"/>
<path d="M233.942 161.742C225.922 154.17 196.562 152.781 184.66 150.504C181.777 149.951 179.485 149.451 177.648 149.011C174.154 132.77 165.537 101.52 164.021 84.6821C163.647 80.523 162.027 61.146 154.314 63.0277C139.38 66.6791 113.245 74.1312 112.327 93.0303C111.58 108.256 117.904 124.444 120.697 139.251C122.086 146.644 123.385 152.849 124.707 158.031H124.595C124.595 158.031 137.207 215.139 137.207 224.54C137.207 233.941 135.37 238.988 134.914 252.75C134.459 266.512 140.462 310.246 141.836 311.142C143.21 312.038 146.19 312.061 147.571 311.598C148.952 311.135 149.176 311.829 149.632 310.224C150.087 308.618 155.605 277.249 157.196 243.999C158.786 210.748 161.288 186.01 171.144 179.133C181.001 172.255 220.912 173.159 221.173 178.214C221.435 183.269 198.623 230.999 199.549 231.917C200.475 232.835 205.523 234.209 206.658 233.754C207.793 233.298 229.357 198.435 236.242 186.51C243.127 174.585 241.969 169.306 233.942 161.742Z" fill="#92E3A9" stroke="#263238" stroke-linecap="round" stroke-linejoin="round"/>
<path d="M154.276 63.0651C146.122 65.0588 134.631 68.1949 125.73 73.6981C129.299 78.8728 138.976 92.0745 145.951 93.7695C154.164 95.7632 157.681 72.3242 156.927 63.2966C156.099 62.9058 155.159 62.8237 154.276 63.0651Z" fill="#263238" stroke="#263238" stroke-linecap="round" stroke-linejoin="round"/>
<path d="M154.568 59.3316C154.568 59.3316 159.854 100.176 174.549 121.308L178.656 124.25C179.403 124.25 165.559 93.0228 159.242 59.2868L154.568 59.3316Z" fill="#263238" stroke="#263238" stroke-linecap="round" stroke-linejoin="round"/>
<path d="M153.619 68.4114C152.768 67.2839 151.924 66.4103 151.163 65.3649C148.855 62.169 149.744 55.3591 152.372 52.9846C152.151 52.4961 151.886 52.0287 151.581 51.5882C148.594 47.4963 136.811 49.5871 133.794 52.9472C134.564 54.2956 135.223 55.704 135.766 57.1586C136.512 59.4435 137.147 62.0122 136.662 64.424C136.042 67.5453 133.511 68.6803 131.323 70.6291C133.817 74.8779 140.768 84.4656 143.845 85.9291C147.496 87.7062 152.492 72.7722 153.619 68.4114Z" fill="white" stroke="#263238" stroke-linecap="round" stroke-linejoin="round"/>
<path d="M150.222 56.2029C150.665 55.0125 151.443 53.9754 152.462 53.2161C155.912 51.0581 164.334 48.2505 166.492 44.1511C166.708 41.9436 166.475 39.7151 165.806 37.6002C165.138 35.4853 164.048 33.5277 162.602 31.8454C157.644 25.8046 148.138 22.5789 140.477 25.0728C130.412 28.3733 128.209 37.6772 130.27 44.5917C131.427 48.4745 133.436 52.3947 134.75 55.2247C136.923 55.7922 140.358 56.061 144.293 56.2477C146.269 56.3411 148.248 56.3262 150.222 56.2029Z" fill="#263238" stroke="#263238" stroke-linecap="round" stroke-linejoin="round"/>
<path d="M143.121 51.8645C143.121 51.8645 141.694 44.1585 138.708 44.1585C135.721 44.1585 134.332 51.3194 135.721 54.9036C137.11 58.4878 139.701 57.0914 139.701 57.0914C140.684 59.405 141.858 61.6328 143.21 63.752C144.808 65.9399 150.125 71.1295 156.24 71.1295C158.824 71.1295 162.408 57.9949 163.207 52.8203C164.006 47.6456 163.998 45.4653 162.61 41.2837C161.221 37.1022 155.441 39.6933 150.468 43.27C147.398 45.5401 144.886 48.4792 143.121 51.8645Z" fill="white" stroke="#263238" stroke-linecap="round" stroke-linejoin="round"/>
<path d="M146.705 42.4411C146.705 42.4411 153.044 40.6042 158.652 46.9811C164.103 53.1862 170.502 49.6169 172.757 46.0402C176.312 40.4101 180.471 44.2482 180.471 37.386C180.471 30.5238 175.871 30.0011 171.152 31.2854C166.433 32.5697 169.009 24.4232 162.572 23.5645C156.136 22.7058 154.426 26.5513 152.708 27.858" fill="#263238"/>
<path d="M146.705 42.4411C146.705 42.4411 153.044 40.6042 158.652 46.9811C164.103 53.1862 170.502 49.6169 172.757 46.0402C176.312 40.4101 180.471 44.2482 180.471 37.386C180.471 30.5238 175.871 30.0011 171.152 31.2854C166.433 32.5697 169.009 24.4232 162.572 23.5645C156.136 22.7058 154.426 26.5513 152.708 27.858" stroke="#263238" stroke-linecap="round" stroke-linejoin="round"/>
<path d="M163.005 48.915C163.005 48.915 161.333 49.0494 161.191 50.3114C161.049 51.5733 161.885 56.1655 161.609 58.5251C161.333 60.8847 158.264 60.3396 156.725 59.0851" fill="white"/>
<path d="M163.005 48.915C163.005 48.915 161.333 49.0494 161.191 50.3114C161.049 51.5733 161.885 56.1655 161.609 58.5251C161.333 60.8847 158.264 60.3396 156.725 59.0851" stroke="#263238" stroke-linecap="round" stroke-linejoin="round"/>
<path d="M156.061 47.9368C156.061 47.9368 152.327 45.1516 150.087 48.2131L156.061 47.9368Z" fill="white"/>
<path d="M156.061 47.9368C156.061 47.9368 152.327 45.1516 150.087 48.2131" stroke="#263238" stroke-linecap="round" stroke-linejoin="round"/>
<path d="M155.471 50.1695L155.337 51.984C155.337 51.984 152.268 53.0966 150.319 51.2821" fill="white"/>
<path d="M155.471 50.1695L155.337 51.984C155.337 51.984 152.268 53.0966 150.319 51.2821" stroke="#263238" stroke-linecap="round" stroke-linejoin="round"/>
<path d="M149.781 172.748C143.129 175.686 135.936 177.2 128.664 177.191C132.346 194.709 137.169 218.76 137.169 224.577C137.169 233.978 135.332 239.026 134.877 252.787C134.421 266.549 140.425 310.284 141.799 311.18C143.173 312.076 146.152 312.098 147.534 311.635C148.915 311.172 149.139 311.867 149.594 310.261C150.05 308.656 155.568 277.287 157.159 244.036C158.749 210.785 161.251 186.047 171.107 179.17C180.963 172.293 211.78 179.476 212.011 184.516C212.243 189.557 198.623 230.999 199.549 231.917C200.475 232.836 205.523 234.209 206.658 233.754C207.793 233.298 229.357 198.435 236.242 186.51C243.127 174.585 241.969 169.336 233.942 161.742C225.915 154.148 196.562 152.781 184.66 150.504C181.777 149.951 179.485 149.451 177.648 149.011C175.654 151.646 167.441 164.953 149.781 172.748Z" fill="#263238"/>
<mask id="mask0_15_150" style="mask-type:luminance" maskUnits="userSpaceOnUse" x="128" y="149" width="113" height="163">
<path d="M149.781 172.748C143.129 175.686 135.936 177.2 128.664 177.191C132.346 194.709 137.169 218.76 137.169 224.577C137.169 233.978 135.332 239.026 134.877 252.787C134.421 266.549 140.425 310.284 141.799 311.18C143.173 312.076 146.152 312.098 147.534 311.635C148.915 311.172 149.139 311.867 149.594 310.261C150.05 308.656 155.568 277.287 157.159 244.036C158.749 210.785 161.251 186.047 171.107 179.17C180.963 172.293 211.78 179.476 212.011 184.516C212.243 189.557 198.623 230.999 199.549 231.917C200.475 232.836 205.523 234.209 206.658 233.754C207.793 233.298 229.357 198.435 236.242 186.51C243.127 174.585 241.969 169.336 233.942 161.742C225.915 154.148 196.562 152.781 184.66 150.504C181.777 149.951 179.485 149.451 177.648 149.011C175.654 151.646 167.441 164.953 149.781 172.748Z" fill="white"/>
</mask>
<g mask="url(#mask0_15_150)">
<path d="M212.011 184.516C212.011 184.516 224.511 192.11 230.097 192.618" stroke="#6B6B6B" stroke-linecap="round" stroke-linejoin="round"/>
<path d="M204.223 180.439C204.223 180.439 214.371 191.095 221.98 195.665" stroke="#6B6B6B" stroke-linecap="round" stroke-linejoin="round"/>
<path d="M205.747 188.556C205.747 188.556 213.355 200.735 219.934 203.781" stroke="#6B6B6B" stroke-linecap="round" stroke-linejoin="round"/>
<path d="M173.28 178.416C173.28 178.416 178.35 172.83 198.668 169.284" stroke="#6B6B6B" stroke-linecap="round" stroke-linejoin="round"/>
<path d="M190.021 173.846C190.021 173.846 203.208 172.353 210.309 171.307" stroke="#6B6B6B" stroke-linecap="round" stroke-linejoin="round"/>
<path d="M159.048 234.725C159.048 234.725 151.947 260.113 146.876 275.308" stroke="#6B6B6B" stroke-linecap="round" stroke-linejoin="round"/>
<path d="M155.523 260.09C153.016 271.597 148.188 282.471 141.336 292.049" stroke="#6B6B6B" stroke-linecap="round" stroke-linejoin="round"/>
</g>
<path d="M149.781 172.748C143.129 175.686 135.936 177.2 128.664 177.191C132.346 194.709 137.169 218.76 137.169 224.577C137.169 233.978 135.332 239.026 134.877 252.787C134.421 266.549 140.425 310.284 141.799 311.18C143.173 312.076 146.152 312.098 147.534 311.635C148.915 311.172 149.139 311.867 149.594 310.261C150.05 308.656 155.568 277.287 157.159 244.036C158.749 210.785 161.251 186.047 171.107 179.17C180.963 172.293 211.78 179.476 212.011 184.516C212.243 189.557 198.623 230.999 199.549 231.917C200.475 232.836 205.523 234.209 206.658 233.754C207.793 233.298 229.357 198.435 236.242 186.51C243.127 174.585 241.969 169.336 233.942 161.742C225.915 154.148 196.562 152.781 184.66 150.504C181.777 149.951 179.485 149.451 177.648 149.011C175.654 151.646 167.441 164.953 149.781 172.748Z" stroke="#263238" stroke-linecap="round" stroke-linejoin="round"/>
<path d="M126.477 193.544L127.858 196.717C128.006 197.053 128.246 197.339 128.549 197.544C128.853 197.749 129.209 197.864 129.575 197.875L132.189 197.942C132.583 197.954 132.971 197.845 133.302 197.63C133.633 197.415 133.891 197.105 134.041 196.74L135.534 193.051L126.477 193.544Z" fill="white" stroke="#263238" stroke-linecap="round" stroke-linejoin="round"/>
<path d="M184.159 134.868C184.749 133.479 182.33 129.156 181.725 128.006C176.498 118.134 161.728 117.903 155.225 126.512C152.858 129.649 151.588 133.688 148.504 136.093C141.889 141.237 132.443 134.965 125.357 134.166C109.922 132.426 99.3414 147.278 99.7521 161.413C100.133 174.578 108.496 187.346 120.428 192.932C121.026 193.215 121.638 193.477 122.25 193.716C136.229 199.234 149.617 192.528 157.345 180.469C159.66 176.848 161.654 173.04 163.998 169.44C165.238 167.544 166.813 165.759 168.912 164.915C173.078 163.228 178.402 164.505 182.868 163.243C185.959 162.369 190.521 160.786 191.992 157.583C193.613 154.036 191.537 153.931 188.565 154.111C185.593 154.29 182.203 151.512 181.882 146.248C181.561 140.984 184.159 134.868 184.159 134.868Z" fill="#757575" stroke="#263238" stroke-linecap="round" stroke-linejoin="round"/>
<path d="M182.009 135.667C182.599 134.286 180.179 129.955 179.582 128.812C174.393 118.941 159.585 118.709 153.074 127.319C150.715 130.455 149.445 134.495 146.354 136.899C139.738 142.036 130.3 135.772 123.206 134.973C107.772 133.233 97.1983 148.085 97.609 162.22C97.9898 175.384 106.353 188.153 118.278 193.738C118.883 194.022 119.487 194.283 120.107 194.522C134.085 200.04 147.474 193.327 155.202 181.268C157.51 177.654 159.511 173.846 161.855 170.247C163.087 168.35 164.67 166.566 166.769 165.714C170.928 164.034 176.259 165.311 180.717 164.049C183.816 163.176 188.378 161.593 189.842 158.389C191.47 154.842 189.394 154.738 186.414 154.917C183.435 155.096 180.053 152.318 179.739 147.054C179.425 141.79 182.009 135.674 182.009 135.667Z" fill="#757575"/>
<mask id="mask1_15_150" style="mask-type:luminance" maskUnits="userSpaceOnUse" x="97" y="121" width="94" height="76">
<path d="M182.009 135.667C182.599 134.286 180.179 129.955 179.582 128.812C174.393 118.941 159.585 118.709 153.074 127.319C150.715 130.455 149.445 134.495 146.354 136.899C139.738 142.036 130.3 135.772 123.206 134.973C107.772 133.233 97.1983 148.085 97.609 162.22C97.9898 175.384 106.353 188.153 118.278 193.738C118.883 194.022 119.487 194.283 120.107 194.522C134.085 200.04 147.474 193.327 155.202 181.268C157.51 177.654 159.511 173.846 161.855 170.247C163.087 168.35 164.67 166.566 166.769 165.714C170.928 164.034 176.259 165.311 180.717 164.049C183.816 163.176 188.378 161.593 189.842 158.389C191.47 154.842 189.394 154.738 186.414 154.917C183.435 155.096 180.053 152.318 179.739 147.054C179.425 141.79 182.009 135.674 182.009 135.667Z" fill="white"/>
</mask>
<g mask="url(#mask1_15_150)">
<path opacity="0.19" d="M188.543 154.163C185.556 154.35 182.181 151.564 181.86 146.3C181.538 141.036 184.159 134.905 184.159 134.905C184.749 133.517 182.33 129.193 181.725 128.043C177.521 120.039 166.993 118.373 159.69 122.63L131.584 195.709C141.993 195.978 151.364 189.848 157.323 180.521C159.638 176.9 161.631 173.092 163.976 169.493C165.208 167.596 166.791 165.811 168.889 164.968C173.056 163.28 178.38 164.557 182.845 163.295C185.937 162.421 190.499 160.838 191.97 157.635C193.59 154.051 191.514 153.946 188.543 154.163Z" fill="white"/>
<path opacity="0.19" d="M133.809 127.565C135.152 126.789 136.597 126.206 138.103 125.833C133.04 121.099 124.871 120.606 118.875 124.086L90.7617 197.166C97.8704 197.345 104.494 194.545 109.877 189.781L133.809 127.565Z" fill="white"/>
</g>
<path d="M182.009 135.667C182.599 134.286 180.179 129.955 179.582 128.812C174.393 118.941 159.585 118.709 153.074 127.319C150.715 130.455 149.445 134.495 146.354 136.899C139.738 142.036 130.3 135.772 123.206 134.973C107.772 133.233 97.1983 148.085 97.609 162.22C97.9898 175.384 106.353 188.153 118.278 193.738C118.883 194.022 119.487 194.283 120.107 194.522C134.085 200.04 147.474 193.327 155.202 181.268C157.51 177.654 159.511 173.846 161.855 170.247C163.087 168.35 164.67 166.566 166.769 165.714C170.928 164.034 176.259 165.311 180.717 164.049C183.816 163.176 188.378 161.593 189.842 158.389C191.47 154.842 189.394 154.738 186.414 154.917C183.435 155.096 180.053 152.318 179.739 147.054C179.425 141.79 182.009 135.674 182.009 135.667Z" stroke="#263238" stroke-linecap="round" stroke-linejoin="round"/>
<path d="M170.241 139.595L173.638 147.726L256.746 105.104L253.842 98.847L170.241 139.595Z" fill="#263238" stroke="#263238" stroke-linecap="round" stroke-linejoin="round"/>
<path d="M180.702 141.715C180.702 141.715 164.775 166.61 159.294 169.097C153.813 171.583 150.095 163.474 153.447 158.068C156.8 152.662 180.702 141.715 180.702 141.715Z" fill="white" stroke="#263238" stroke-linecap="round" stroke-linejoin="round"/>
<path d="M177.286 147.841L171.893 136.73C171.488 135.895 170.483 135.547 169.648 135.952L165.201 138.11C164.366 138.515 164.018 139.521 164.423 140.355L169.816 151.466C170.221 152.301 171.226 152.649 172.061 152.244L176.508 150.086C177.343 149.681 177.691 148.675 177.286 147.841Z" fill="white" stroke="#263238" stroke-linecap="round" stroke-linejoin="round"/>
<path d="M158.366 158.692L153.31 147.424C152.93 146.577 151.935 146.199 151.089 146.579L146.579 148.603C145.733 148.983 145.354 149.977 145.734 150.824L150.791 162.091C151.171 162.938 152.165 163.316 153.012 162.936L157.522 160.912C158.368 160.532 158.746 159.538 158.366 158.692Z" fill="white" stroke="#263238" stroke-linecap="round" stroke-linejoin="round"/>
<path d="M132.682 172.599L124.938 156.261C124.88 156.139 124.847 156.007 124.841 155.873C124.835 155.738 124.857 155.603 124.904 155.477C124.952 155.351 125.024 155.236 125.117 155.138C125.21 155.04 125.322 154.963 125.446 154.91C125.566 154.851 125.696 154.817 125.828 154.809C125.961 154.801 126.094 154.82 126.22 154.863C126.345 154.907 126.461 154.975 126.56 155.064C126.66 155.153 126.74 155.26 126.798 155.38L134.541 171.718C134.654 171.96 134.667 172.236 134.578 172.488C134.488 172.739 134.303 172.946 134.063 173.062C133.943 173.125 133.81 173.164 133.675 173.175C133.539 173.185 133.403 173.169 133.273 173.126C133.144 173.082 133.025 173.013 132.924 172.923C132.822 172.832 132.74 172.722 132.682 172.599Z" fill="white" stroke="#263238" stroke-linecap="round" stroke-linejoin="round"/>
<path d="M125.132 156.911L100.962 176.698C100.596 176.995 100.344 177.408 100.246 177.869C100.148 178.33 100.211 178.81 100.424 179.23L102.022 182.411C102.256 182.877 102.658 183.238 103.146 183.421C103.635 183.604 104.175 183.595 104.658 183.396L132.517 171.942L131.472 170.09L113.372 173.346L126.253 159.524L125.132 156.911Z" fill="white" stroke="#263238" stroke-linecap="round" stroke-linejoin="round"/>
<path d="M152.723 164.393C152.452 164.162 152.101 164.047 151.746 164.074C151.391 164.1 151.06 164.266 150.827 164.535C148.004 167.29 144.651 169.441 140.97 170.859C138.584 171.832 136.14 172.655 133.652 173.323C133.025 173.48 132.398 173.637 131.771 173.749C130.277 174.018 127.843 174.608 128.037 176.556C128.077 177.045 128.293 177.502 128.646 177.843C128.998 178.183 129.463 178.384 129.953 178.407C130.442 178.43 130.923 178.273 131.306 177.967C131.689 177.661 131.947 177.226 132.032 176.743C135.484 176.048 138.856 175.004 142.098 173.629C146.219 172.061 149.915 169.547 152.887 166.289C153.001 166.154 153.088 165.998 153.141 165.829C153.195 165.661 153.214 165.483 153.199 165.307C153.184 165.131 153.134 164.959 153.052 164.802C152.971 164.645 152.859 164.506 152.723 164.393Z" fill="white" stroke="#263238" stroke-linecap="round" stroke-linejoin="round"/>
<path d="M124.199 183.284C124.164 182.886 124.011 182.507 123.76 182.195C123.509 181.883 123.171 181.653 122.789 181.533C122.407 181.413 121.999 181.409 121.614 181.522C121.23 181.635 120.888 181.858 120.632 182.165C120.375 182.472 120.215 182.848 120.172 183.246C120.129 183.644 120.205 184.046 120.39 184.401C120.575 184.755 120.861 185.047 121.212 185.239C121.563 185.431 121.964 185.515 122.362 185.48C122.627 185.456 122.885 185.381 123.12 185.258C123.356 185.135 123.565 184.966 123.736 184.762C123.906 184.559 124.035 184.323 124.114 184.07C124.194 183.816 124.223 183.549 124.199 183.284Z" fill="white" stroke="#263238" stroke-linecap="round" stroke-linejoin="round"/>
<path d="M139.327 185.412C139.292 185.013 139.138 184.634 138.887 184.322C138.636 184.011 138.297 183.781 137.915 183.661C137.533 183.542 137.124 183.538 136.74 183.652C136.356 183.765 136.014 183.99 135.757 184.297C135.501 184.605 135.342 184.982 135.299 185.38C135.257 185.778 135.334 186.18 135.521 186.534C135.707 186.889 135.994 187.18 136.346 187.371C136.698 187.562 137.099 187.644 137.498 187.608C138.031 187.558 138.523 187.3 138.866 186.888C139.209 186.477 139.375 185.946 139.327 185.412Z" fill="white" stroke="#263238" stroke-linecap="round" stroke-linejoin="round"/>
<path d="M200.079 125.056L199.198 125.482L202.446 132.837L203.32 132.389L200.079 125.056Z" fill="white" stroke="#263238" stroke-linecap="round" stroke-linejoin="round"/>
<path d="M206.015 122.159L205.142 122.585L208.33 129.805L209.204 129.357L206.015 122.159Z" fill="white" stroke="#263238" stroke-linecap="round" stroke-linejoin="round"/>
<path d="M192.373 128.812L191.492 129.238L194.83 136.765L195.696 136.317L192.373 128.812Z" fill="white" stroke="#263238" stroke-linecap="round" stroke-linejoin="round"/>
<path d="M211.959 119.262L211.085 119.688L214.214 126.781L215.08 126.333L211.959 119.262Z" fill="white" stroke="#263238" stroke-linecap="round" stroke-linejoin="round"/>
<path d="M185.108 132.352L184.227 132.777L187.639 140.468L188.513 140.02L185.108 132.352Z" fill="white" stroke="#263238" stroke-linecap="round" stroke-linejoin="round"/>
<path d="M179.582 144.613L180.456 144.164L176.961 136.324L176.08 136.75L179.582 144.613Z" fill="white" stroke="#263238" stroke-linecap="round" stroke-linejoin="round"/>
<path d="M217.903 116.365L217.022 116.79L220.091 123.75L220.964 123.302L217.903 116.365Z" fill="white" stroke="#263238" stroke-linecap="round" stroke-linejoin="round"/>
<path d="M247.622 101.879L246.741 102.304L249.78 108.689L250.646 108.241L247.622 101.879Z" fill="white" stroke="#263238" stroke-linecap="round" stroke-linejoin="round"/>
<path d="M235.734 107.673L234.853 108.099L238.019 114.752L238.885 114.304L235.734 107.673Z" fill="white" stroke="#263238" stroke-linecap="round" stroke-linejoin="round"/>
<path d="M241.678 104.776L240.797 105.202L243.896 111.72L244.769 111.272L241.678 104.776Z" fill="white" stroke="#263238" stroke-linecap="round" stroke-linejoin="round"/>
<path d="M223.847 113.467L222.966 113.893L226.258 120.808L227.125 120.36L223.847 113.467Z" fill="white" stroke="#263238" stroke-linecap="round" stroke-linejoin="round"/>
<path d="M229.798 110.57L228.917 111.003L232.135 117.776L233.009 117.328L229.798 110.57Z" fill="white" stroke="#263238" stroke-linecap="round" stroke-linejoin="round"/>
<path d="M254.439 99.1159L128.075 161.943" stroke="white" stroke-width="0.5" stroke-linecap="round" stroke-linejoin="round"/>
<path d="M255.148 100.176L128.784 163.004" stroke="white" stroke-width="0.5" stroke-linecap="round" stroke-linejoin="round"/>
<path d="M255.85 101.244L129.493 164.072" stroke="white" stroke-width="0.5" stroke-linecap="round" stroke-linejoin="round"/>
<path d="M256.56 102.304L130.203 165.132" stroke="white" stroke-width="0.5" stroke-linecap="round" stroke-linejoin="round"/>
<path d="M257.269 103.365L130.912 166.192" stroke="white" stroke-width="0.5" stroke-linecap="round" stroke-linejoin="round"/>
<path d="M257.978 104.432L131.621 167.26" stroke="white" stroke-width="0.5" stroke-linecap="round" stroke-linejoin="round"/>
<path d="M253.879 98.8471L255.94 91.1411C255.94 91.1411 262.459 92.5822 270.299 85.4438C274.008 89.288 276.398 94.2121 277.124 99.5042C277.124 99.5042 266.02 102.013 263.833 107.658L256.784 105.104L253.879 98.8471Z" fill="#263238" stroke="#263238" stroke-linecap="round" stroke-linejoin="round"/>
<path d="M261.174 95.5466C261.149 95.3203 261.057 95.1065 260.91 94.9325C260.763 94.7584 260.568 94.6319 260.349 94.5689C260.13 94.506 259.898 94.5094 259.681 94.5789C259.464 94.6483 259.273 94.7806 259.131 94.9589C258.989 95.1373 258.904 95.3537 258.885 95.5807C258.867 95.8077 258.916 96.035 259.027 96.234C259.138 96.4329 259.305 96.5944 259.508 96.698C259.711 96.8017 259.94 96.8427 260.166 96.816C260.468 96.7804 260.743 96.627 260.932 96.3891C261.121 96.1513 261.208 95.8485 261.174 95.5466Z" fill="white" stroke="#263238" stroke-linecap="round" stroke-linejoin="round"/>
<path d="M264.893 93.7396C264.868 93.5135 264.776 93.2999 264.63 93.1259C264.484 92.9518 264.289 92.8251 264.07 92.7617C263.852 92.6984 263.619 92.7013 263.403 92.77C263.186 92.8387 262.994 92.9702 262.852 93.1478C262.71 93.3254 262.624 93.5412 262.604 93.7679C262.585 93.9945 262.633 94.2218 262.743 94.421C262.853 94.6203 263.019 94.7825 263.221 94.8872C263.423 94.9918 263.651 95.0342 263.877 95.009C264.18 94.9752 264.458 94.8226 264.648 94.5845C264.838 94.3465 264.927 94.0426 264.893 93.7396Z" fill="white" stroke="#263238" stroke-linecap="round" stroke-linejoin="round"/>
<path d="M268.612 91.9252C268.586 91.6991 268.495 91.4855 268.349 91.3114C268.202 91.1374 268.007 91.0106 267.789 90.9473C267.57 90.8839 267.338 90.8868 267.121 90.9555C266.904 91.0243 266.713 91.1557 266.571 91.3334C266.429 91.511 266.342 91.7268 266.323 91.9534C266.303 92.18 266.352 92.4074 266.461 92.6066C266.571 92.8058 266.738 92.968 266.939 93.0727C267.141 93.1774 267.37 93.2198 267.596 93.1946C267.899 93.1608 268.176 93.0081 268.367 92.7701C268.557 92.532 268.645 92.2281 268.612 91.9252Z" fill="white" stroke="#263238" stroke-linecap="round" stroke-linejoin="round"/>
<path d="M264.124 101.744C264.099 101.518 264.007 101.304 263.86 101.13C263.713 100.956 263.518 100.83 263.299 100.767C263.08 100.704 262.847 100.707 262.63 100.777C262.414 100.846 262.222 100.978 262.08 101.157C261.939 101.335 261.853 101.551 261.835 101.778C261.816 102.005 261.866 102.233 261.977 102.432C262.087 102.631 262.255 102.792 262.458 102.896C262.661 102.999 262.89 103.04 263.116 103.014C263.417 102.978 263.693 102.825 263.881 102.587C264.07 102.349 264.157 102.046 264.124 101.744Z" fill="white" stroke="#263238" stroke-linecap="round" stroke-linejoin="round"/>
<path d="M267.842 99.9373C267.817 99.7112 267.726 99.4976 267.579 99.3236C267.433 99.1495 267.238 99.0228 267.02 98.9594C266.801 98.8961 266.569 98.899 266.352 98.9677C266.135 99.0364 265.944 99.1679 265.802 99.3455C265.659 99.5231 265.573 99.7389 265.554 99.9656C265.534 100.192 265.583 100.42 265.692 100.619C265.802 100.818 265.968 100.98 266.17 101.085C266.372 101.189 266.601 101.232 266.827 101.207C267.13 101.173 267.407 101.02 267.597 100.782C267.788 100.544 267.876 100.24 267.842 99.9373Z" fill="white" stroke="#263238" stroke-linecap="round" stroke-linejoin="round"/>
<path d="M271.561 98.1601C271.536 97.9341 271.444 97.7205 271.298 97.5464C271.152 97.3723 270.957 97.2456 270.738 97.1823C270.52 97.1189 270.287 97.1218 270.071 97.1905C269.854 97.2592 269.662 97.3907 269.52 97.5684C269.378 97.746 269.292 97.9618 269.272 98.1884C269.253 98.415 269.301 98.6423 269.411 98.8416C269.521 99.0408 269.687 99.203 269.889 99.3077C270.091 99.4123 270.319 99.4547 270.545 99.4295C270.848 99.3958 271.126 99.2431 271.316 99.0051C271.506 98.767 271.595 98.4631 271.561 98.1601Z" fill="white" stroke="#263238" stroke-linecap="round" stroke-linejoin="round"/>
<path d="M236.914 115.334C236.914 115.334 232.501 108.614 232.568 107.867C232.874 104.761 237.847 111.989 238.99 113.139C240.132 114.289 239.908 115.663 238.758 117.037C237.608 118.411 230.059 118.866 230.059 118.866L236.914 115.334Z" fill="white" stroke="#263238" stroke-linecap="round" stroke-linejoin="round"/>
<path d="M239.744 113.408C239.744 113.408 235.921 107.486 237.101 106.344C238.781 104.724 239.079 107.27 240.267 109.45C241.454 111.631 242.641 113.475 241.917 114.132C240.588 115.334 239.744 113.408 239.744 113.408Z" fill="white" stroke="#263238" stroke-linecap="round" stroke-linejoin="round"/>
<path d="M242.118 111.892C242.118 111.892 238.661 105.321 239.475 104.828C240.289 104.335 241.454 105.754 242.641 107.927C243.828 110.1 245.023 111.952 244.291 112.616C242.962 113.841 242.118 111.892 242.118 111.892Z" fill="white" stroke="#263238" stroke-linecap="round" stroke-linejoin="round"/>
<path d="M245.15 112.81C245.15 112.81 242.044 106.262 242.514 105.754C243.649 104.515 244.493 106.673 245.68 108.853C246.868 111.033 248.055 112.878 247.331 113.535C245.994 114.752 245.15 112.81 245.15 112.81Z" fill="white" stroke="#263238" stroke-linecap="round" stroke-linejoin="round"/>
<path d="M122.205 76.1249C122.205 76.1249 115.612 80.0974 109.19 84.9136C102.769 89.7298 80.293 144.769 81.4429 146.838C82.5928 148.906 141.067 156.47 144.965 157.157C148.863 157.844 150.939 158.763 153.447 158.068C155.956 157.374 158.958 153.715 158.958 153.715C158.958 153.715 161.945 153.259 162.393 151.654C162.841 150.049 161.475 150.049 159.869 149.354C158.264 148.66 157.121 146.367 155.971 145.232C154.821 144.097 149.326 145.456 147.257 146.375C145.189 147.293 141.754 148.899 139.917 149.13C138.08 149.362 127.537 147.98 118.36 142.932C109.183 137.885 106.413 136.287 105.061 135.137C103.71 133.987 125.7 99.3623 125.7 99.3623" fill="#92E3A9"/>
<path d="M122.205 76.1249C122.205 76.1249 115.612 80.0974 109.19 84.9136C102.769 89.7298 80.293 144.769 81.4429 146.838C82.5928 148.906 141.067 156.47 144.965 157.157C148.863 157.844 150.939 158.763 153.447 158.068C155.956 157.374 158.958 153.715 158.958 153.715C158.958 153.715 161.945 153.259 162.393 151.654C162.841 150.049 161.475 150.049 159.869 149.354C158.264 148.66 157.121 146.367 155.971 145.232C154.821 144.097 149.326 145.456 147.257 146.375C145.189 147.293 141.754 148.899 139.917 149.13C138.08 149.362 127.537 147.98 118.36 142.932C109.183 137.885 106.413 136.287 105.061 135.137C103.71 133.987 125.7 99.3623 125.7 99.3623" stroke="#263238" stroke-linecap="round" stroke-linejoin="round"/>
<path d="M162.393 151.654C162.856 150.049 161.475 150.049 159.869 149.354C158.264 148.66 157.121 146.367 155.971 145.232C154.821 144.097 149.326 145.456 147.257 146.375C145.189 147.293 141.754 148.899 139.917 149.13C138.08 149.362 127.537 147.98 118.36 142.932C109.183 137.885 106.413 136.287 105.061 135.137C104.613 134.764 106.659 130.828 109.609 125.699C103.198 124.78 96.9808 122.82 91.2023 119.897C85.4975 133.419 80.9053 145.874 81.4429 146.838C82.5854 148.899 141.067 156.47 144.965 157.157C148.863 157.844 150.939 158.763 153.447 158.068C155.956 157.374 158.958 153.715 158.958 153.715C158.958 153.715 161.938 153.259 162.393 151.654Z" fill="white" stroke="#263238" stroke-linecap="round" stroke-linejoin="round"/>
<path d="M105.061 135.137C105.061 135.137 97.4672 132.859 92.285 138.729" stroke="#263238" stroke-linecap="round" stroke-linejoin="round"/>
<path d="M90.0823 122.57C96.25 125.318 104.949 126.572 108.847 127.05C110.109 124.81 111.58 122.316 113.126 119.74C106.355 119.006 99.7318 117.27 93.4723 114.588C92.3149 117.276 91.1724 119.956 90.0823 122.57Z" fill="#263238" stroke="#263238" stroke-linecap="round" stroke-linejoin="round"/>
<defs>
<filter id="filter0_d_15_150" x="0" y="290.063" width="358.749" height="69.2048" filterUnits="userSpaceOnUse" color-interpolation-filters="sRGB">
<feFlood flood-opacity="0" result="BackgroundImageFix"/>
<feColorMatrix in="SourceAlpha" type="matrix" values="0 0 0 0 0 0 0 0 0 0 0 0 0 0 0 0 0 0 127 0" result="hardAlpha"/>
<feOffset dx="10" dy="15"/>
<feGaussianBlur stdDeviation="5"/>
<feComposite in2="hardAlpha" operator="out"/>
<feColorMatrix type="matrix" values="0 0 0 0 0 0 0 0 0 0 0 0 0 0 0 0 0 0 0.25 0"/>
<feBlend mode="normal" in2="BackgroundImageFix" result="effect1_dropShadow_15_150"/>
<feBlend mode="normal" in="SourceGraphic" in2="effect1_dropShadow_15_150" result="shape"/>
</filter>
</defs>
</svg>
