<svg width="350" height="357" viewBox="0 0 350 357" fill="none" xmlns="http://www.w3.org/2000/svg">
<g filter="url(#filter0_d_15_387)">
<path d="M64.5323 310.008C131.895 345.203 241.112 345.203 308.475 310.008C375.838 274.812 375.846 217.76 308.475 182.564C241.104 147.369 131.895 147.377 64.5243 182.564C-2.84675 217.752 -2.83874 274.804 64.5323 310.008Z" fill="#C1E5F4"/>
</g>
<path d="M149.649 279.443C167.804 288.096 197.231 288.096 215.346 279.443C233.461 270.79 233.501 256.77 215.346 248.117C197.191 239.464 167.772 239.464 149.649 248.117C131.527 256.77 131.463 270.798 149.649 279.443Z" fill="#EBEBEB"/>
<path d="M306.808 258.027L241.913 295.482C241.375 295.755 240.781 295.897 240.179 295.897C239.576 295.897 238.982 295.755 238.444 295.482L157.325 248.63C157.116 248.559 156.934 248.424 156.805 248.244C156.676 248.065 156.607 247.849 156.607 247.628C156.607 247.407 156.676 247.192 156.805 247.012C156.934 246.832 157.116 246.698 157.325 246.627L222.22 209.172C222.758 208.899 223.352 208.757 223.955 208.757C224.557 208.757 225.152 208.899 225.689 209.172L306.833 256.024C307.041 256.098 307.221 256.235 307.348 256.416C307.474 256.597 307.541 256.813 307.538 257.035C307.536 257.256 307.464 257.47 307.333 257.648C307.202 257.826 307.019 257.959 306.808 258.027Z" fill="#EBEBEB"/>
<path d="M324.867 52.1327V69.334C324.867 69.334 317.8 72.6429 304.837 72.6429C291.874 72.6429 284.808 69.326 284.808 69.326V52.5013L298.332 14.229C298.148 15.4308 298.853 16.6326 300.439 17.578C301.599 18.2942 302.918 18.7135 304.28 18.7987C305.641 18.884 307.002 18.6325 308.242 18.0667C308.591 17.9297 308.928 17.7663 309.252 17.578C310.934 16.6085 311.655 15.2786 311.327 14.0127L324.867 52.1327Z" fill="#F5F5F5"/>
<path opacity="0.5" d="M324.867 52.1327V69.334C324.867 69.334 317.8 72.6429 304.837 72.6429C291.874 72.6429 284.808 69.326 284.808 69.326V52.5013L298.332 14.229C298.148 15.4308 298.853 16.6326 300.439 17.578C301.599 18.2942 302.918 18.7135 304.28 18.7987C305.641 18.884 307.002 18.6325 308.242 18.0667C308.591 17.9297 308.928 17.7663 309.252 17.578C310.934 16.6085 311.655 15.2786 311.327 14.0127L324.867 52.1327Z" fill="white"/>
<path d="M323.313 172.71C322.151 174.24 320.68 175.507 318.994 176.427C311.159 180.954 298.46 180.954 290.633 176.427C288.944 175.508 287.47 174.241 286.306 172.71C285.402 171.508 284.868 170.069 284.768 168.568V177.501C284.912 180.353 286.859 183.181 290.633 185.361C298.46 189.879 311.159 189.879 318.994 185.361C322.904 183.101 324.867 180.137 324.867 177.172V168.247C324.837 169.862 324.293 171.426 323.313 172.71Z" fill="#F5F5F5"/>
<path d="M323.313 163.777C322.151 165.307 320.68 166.573 318.994 167.494C318.53 167.759 318.057 168.007 317.568 168.239C310.173 171.765 299.446 171.765 292.059 168.239C291.57 168.007 291.089 167.759 290.633 167.494C288.944 166.574 287.47 165.307 286.306 163.777C285.403 162.578 284.868 161.141 284.768 159.643V168.568C284.868 170.069 285.402 171.508 286.306 172.71C287.47 174.241 288.944 175.508 290.633 176.427C298.46 180.954 311.159 180.954 318.994 176.427C320.68 175.507 322.151 174.24 323.313 172.71C324.293 171.426 324.837 169.862 324.867 168.247V159.314C324.838 160.929 324.293 162.493 323.313 163.777Z" fill="#EBEBEB"/>
<path d="M323.313 154.844C322.15 156.374 320.679 157.644 318.994 158.569C318.53 158.834 318.057 159.074 317.568 159.314C310.173 162.839 299.446 162.839 292.059 159.314C291.57 159.074 291.089 158.834 290.633 158.569C288.946 157.644 287.472 156.374 286.306 154.844C285.403 153.645 284.868 152.208 284.768 150.71V159.643C284.868 161.141 285.403 162.578 286.306 163.777C287.47 165.307 288.944 166.574 290.633 167.494C291.089 167.759 291.57 168.007 292.059 168.239C299.446 171.765 310.173 171.765 317.568 168.239C318.057 168.007 318.53 167.759 318.994 167.494C320.68 166.573 322.151 165.307 323.313 163.777C324.293 162.493 324.838 160.929 324.867 159.314V150.381C324.839 151.997 324.294 153.56 323.313 154.844Z" fill="#F5F5F5"/>
<path d="M284.768 52.4693V150.71C284.868 152.208 285.403 153.645 286.306 154.844C287.472 156.374 288.946 157.644 290.633 158.569C291.089 158.834 291.57 159.074 292.059 159.314C293.996 160.217 296.035 160.881 298.132 161.293L294.502 57.7571L284.768 52.4693Z" fill="#F5F5F5"/>
<path d="M315.125 57.757L311.487 161.293C313.584 160.881 315.623 160.217 317.56 159.314C318.049 159.074 318.522 158.834 318.986 158.569C320.671 157.644 322.142 156.374 323.305 154.844C324.286 153.56 324.831 151.996 324.859 150.381V52.1328L315.125 57.757Z" fill="#F5F5F5"/>
<path d="M284.768 52.4693V150.71C284.868 152.208 285.403 153.645 286.306 154.844C287.472 156.374 288.946 157.644 290.633 158.569C291.089 158.834 291.57 159.074 292.059 159.314C293.996 160.217 296.035 160.881 298.132 161.293L294.502 57.7571L284.768 52.4693Z" fill="#E0E0E0"/>
<path d="M315.125 57.757L311.487 161.293C313.584 160.881 315.623 160.217 317.56 159.314C318.049 159.074 318.522 158.834 318.986 158.569C320.671 157.644 322.142 156.374 323.305 154.844C324.286 153.56 324.831 151.996 324.859 150.381V52.1328L315.125 57.757Z" fill="#E0E0E0"/>
<path d="M294.502 57.7571V160.308C295.689 160.718 296.901 161.05 298.132 161.301C300.331 161.746 302.57 161.968 304.813 161.966C307.057 161.964 309.295 161.742 311.495 161.301C312.726 161.05 313.938 160.718 315.125 160.308V57.7571H294.502Z" fill="#EBEBEB"/>
<path d="M309.22 17.5379C308.896 17.7262 308.559 17.8896 308.21 18.0266C306.97 18.5925 305.609 18.8439 304.248 18.7587C302.887 18.6734 301.567 18.2541 300.407 17.5379C298.805 16.6246 298.116 15.3908 298.3 14.189L302.915 1.266C303.067 0.8881 303.329 0.564973 303.668 0.339056C304.007 0.113139 304.406 -0.00500612 304.813 0.00013341C305.222 -0.00552206 305.622 0.112308 305.963 0.338188C306.303 0.564068 306.567 0.887463 306.72 1.266L311.287 13.9566C311.599 15.2225 310.902 16.5685 309.22 17.5379Z" fill="#E0E0E0"/>
<path d="M318.994 185.361C312.264 189.246 301.945 189.783 294.206 186.963C293.773 186.813 293.349 186.645 292.932 186.458L292.355 186.218C291.754 185.945 291.177 185.649 290.633 185.336C286.859 183.157 284.912 180.329 284.768 177.477V201.817C284.624 204.893 286.571 207.994 290.633 210.333C291.113 210.614 291.618 210.878 292.139 211.134C292.331 211.231 292.539 211.303 292.732 211.391C293.068 211.535 293.397 211.687 293.741 211.815C294.086 211.944 294.278 212.008 294.542 212.096C294.807 212.184 295.111 212.304 295.408 212.392C295.704 212.48 296.065 212.577 296.393 212.665C296.722 212.753 296.898 212.809 297.154 212.865C297.411 212.921 297.915 213.033 298.3 213.105C298.516 213.105 298.732 213.201 298.949 213.233C299.381 213.314 299.822 213.37 300.263 213.434L300.784 213.506C301.272 213.562 301.761 213.602 302.25 213.634H302.634C303.171 213.674 303.708 213.69 304.237 213.698H304.493C305.07 213.698 305.647 213.698 306.223 213.698H306.352C306.961 213.698 307.569 213.626 308.178 213.57C311.747 213.267 315.222 212.271 318.409 210.638C318.586 210.542 318.77 210.461 318.946 210.357C322.856 208.098 324.819 205.134 324.819 202.169V177.172C324.867 180.137 322.904 183.101 318.994 185.361Z" fill="#E0E0E0"/>
<path d="M77.1267 199.557C74.8113 198.973 62.4492 191.938 61.1913 191.081C59.9335 190.224 57.4498 188.453 57.4498 185.401C57.4498 182.701 57.7302 157.239 59.9415 144.941C60.668 141.116 62.1692 137.479 64.353 134.255C66.5368 131.031 69.357 128.287 72.6402 126.194C80.3315 121.427 88.0628 117.974 94.5764 120.682C101.09 123.389 107.035 128.365 109.598 134.374C112.162 140.382 113.917 152.416 114.101 157.071C114.285 161.726 114.101 177.685 114.101 179.103C114.101 180.521 113.845 182.364 106.209 187.115C98.5743 191.866 88.0308 197.53 84.77 198.997C82.3446 199.983 79.6701 200.179 77.1267 199.557Z" fill="#37474F"/>
<path d="M75.2198 129.502C74.5148 129.903 72.4798 128.902 72.1753 128.397C71.8709 127.892 71.7908 123.526 73.313 121.114C74.8352 118.703 84.3292 114.256 86.6766 114.585C87.5559 114.728 88.3966 115.049 89.1474 115.528C89.8982 116.008 90.5433 116.635 91.0431 117.373C91.3315 117.99 91.652 122.052 91.0431 122.885C90.4342 123.718 88.263 122.436 88.0707 122.084C87.8784 121.731 88.7837 118.759 87.2695 118.142C85.8755 117.581 79.2577 120.393 76.5658 122.652C75.3961 123.638 75.4522 126.081 75.5082 127.291C75.5643 128.501 75.5723 129.294 75.2198 129.502Z" fill="#455A64"/>
<path d="M73.3131 158.169C74.6751 144.941 77.1267 137.218 90.0657 131.457C103.005 125.697 108.028 130.6 109.863 135.015C112.266 141.2 113.925 152.576 114.101 157.071C114.285 161.726 114.101 177.685 114.101 179.103C114.101 180.521 113.845 182.364 106.209 187.115C98.5742 191.866 88.0307 197.53 84.7699 198.997C82.3471 199.991 79.6725 200.195 77.1267 199.581C76.6154 199.426 76.1171 199.23 75.6365 198.997C71.6066 193.821 72.0632 170.25 73.3131 158.169Z" fill="#455A64"/>
<path d="M103.478 126.29C100.097 124.311 94.5524 123.005 86.4125 126.634C71.8631 133.116 68.1697 141.232 66.7035 155.477C66.4391 158.088 66.0465 161.197 65.9023 164.538L64.7006 163.809C64.8688 160.204 65.2213 157.119 65.5017 154.331C67.1041 139.982 71.4064 132.05 85.3068 125.857C93.0062 122.428 98.0616 122.877 101.411 124.567C102.13 125.104 102.82 125.679 103.478 126.29Z" fill="#263238"/>
<path d="M103.982 126.658C100.609 124.679 95.0569 123.374 86.925 127.003C72.3676 133.484 68.6742 141.6 67.208 155.845C66.9436 158.457 66.5511 161.566 66.4068 164.907L65.2051 164.177C65.3733 160.572 65.7258 157.488 66.0063 154.7C67.6086 140.35 71.9109 132.411 85.8114 126.226C93.5107 122.797 98.7023 123.365 102.051 125.048C102.725 125.548 103.369 126.086 103.982 126.658Z" fill="#455A64"/>
<path d="M99.271 139.237L94.8726 136.721C94.6555 136.599 94.3992 136.568 94.1592 136.634C93.9192 136.7 93.7149 136.858 93.5907 137.074L89.0801 144.917C88.9544 145.133 88.9192 145.39 88.9823 145.631C89.0453 145.873 89.2015 146.08 89.4166 146.207L93.759 148.739C93.9748 148.864 94.2316 148.9 94.4733 148.837C94.715 148.774 94.9219 148.617 95.0488 148.402L99.6156 140.511C99.6782 140.405 99.719 140.287 99.7355 140.166C99.7521 140.044 99.744 139.92 99.7119 139.801C99.6798 139.682 99.6243 139.571 99.5486 139.474C99.4728 139.377 99.3785 139.297 99.271 139.237Z" fill="#263238"/>
<path d="M94.5523 147.841L98.8867 140.366C98.9179 140.313 98.9381 140.254 98.9462 140.192C98.9542 140.131 98.9499 140.069 98.9335 140.009C98.917 139.949 98.8888 139.893 98.8505 139.845C98.8122 139.796 98.7646 139.756 98.7104 139.726L94.7045 137.45C94.596 137.389 94.4678 137.374 94.3478 137.407C94.2278 137.44 94.1257 137.519 94.0636 137.626L89.7773 145.069C89.7164 145.178 89.7007 145.306 89.7337 145.426C89.7667 145.546 89.8457 145.648 89.9535 145.71L93.8873 148.01C93.9416 148.044 94.0022 148.067 94.0656 148.077C94.129 148.087 94.1937 148.084 94.256 148.068C94.3182 148.053 94.3765 148.025 94.4275 147.985C94.4784 147.946 94.5209 147.897 94.5523 147.841Z" fill="#455A64"/>
<path d="M95.4817 144.268C95.5972 144.198 95.6949 144.103 95.7672 143.989C95.8395 143.875 95.8843 143.745 95.8983 143.611V140.03C95.8983 139.798 95.714 139.726 95.4817 139.854C95.3662 139.924 95.2685 140.019 95.1962 140.133C95.1239 140.247 95.079 140.376 95.0651 140.511V144.092C95.0651 144.324 95.2493 144.396 95.4817 144.268Z" fill="#37474F"/>
<path d="M93.1582 145.614C93.2735 145.542 93.3709 145.445 93.443 145.33C93.5152 145.214 93.5603 145.084 93.5748 144.949V141.376C93.5748 141.144 93.3825 141.063 93.1582 141.2C93.0419 141.269 92.9435 141.364 92.8711 141.478C92.7987 141.592 92.7543 141.722 92.7416 141.857V145.438C92.7656 145.662 92.9259 145.742 93.1582 145.614Z" fill="#37474F"/>
<path d="M79.306 169.353C79.306 169.353 81.4852 171.148 83.0555 177.91C84.6258 184.672 85.5712 193.188 83.8567 194.214C82.1422 195.239 79.6665 193.092 79.0496 192.355C77.7837 190.841 78.0962 174.769 79.306 169.353Z" fill="#263238"/>
<path d="M79.3058 169.353C79.3058 169.353 81.485 171.148 83.0553 177.91C84.6256 184.672 85.571 193.188 83.8565 194.214L110.295 178.623C112.026 177.597 112.45 168.648 110.888 161.886C109.855 157.44 107.956 155.324 106.786 154.395C106.518 154.188 106.194 154.066 105.855 154.044C105.517 154.023 105.18 154.103 104.887 154.275L79.3058 169.353Z" fill="#37474F"/>
<path d="M106.241 155.429C107.507 156.053 109.654 157.776 110.624 162.351C110.787 162.973 110.773 163.63 110.581 164.244C110.39 164.859 110.03 165.408 109.542 165.828C108.661 166.453 89.7372 177.213 87.2295 178.711C85.0663 180.001 83.9447 178.286 83.472 177.213C82.6708 175.306 81.9818 173.824 81.3889 172.686C80.9362 171.445 80.2294 170.313 79.3138 169.361L104.527 155.501C104.785 155.349 105.076 155.263 105.375 155.251C105.674 155.238 105.972 155.299 106.241 155.429Z" fill="#263238"/>
<path d="M66.7194 165.652C67.0855 167.029 67.3242 168.437 67.4324 169.858C67.4324 170.146 67.0398 170.298 66.9277 170.298C66.0115 170.114 65.1634 169.682 64.4761 169.049C64.6045 167.837 64.8241 166.638 65.133 165.459L66.7194 165.652Z" fill="#263238"/>
<path d="M67.5366 164.522C67.5366 164.219 67.4468 163.923 67.2787 163.672C67.1105 163.42 66.8715 163.224 66.5919 163.108C66.3123 162.992 66.0046 162.962 65.7078 163.021C65.4109 163.08 65.1383 163.226 64.9243 163.44C64.7103 163.654 64.5645 163.927 64.5055 164.223C64.4464 164.52 64.4767 164.828 64.5926 165.108C64.7084 165.387 64.9045 165.626 65.1562 165.794C65.4078 165.962 65.7037 166.052 66.0063 166.052C66.4122 166.052 66.8014 165.891 67.0884 165.604C67.3754 165.317 67.5366 164.928 67.5366 164.522Z" fill="#263238"/>
<path d="M86.6766 118.07C88.3511 117.909 89.9294 118.07 90.33 119.744C90.7306 121.419 90.5864 122.949 90.33 123.157C89.4816 123.05 88.6899 122.673 88.0707 122.084C87.8784 121.723 88.7837 118.759 87.2695 118.142C87.0838 118.08 86.8878 118.056 86.6927 118.07H86.6766Z" fill="#263238"/>
<path d="M105.048 154.187C105.307 154.034 105.599 153.947 105.9 153.935C106.2 153.922 106.499 153.984 106.77 154.115C108.036 154.74 110.183 156.462 111.153 161.037C111.315 161.66 111.3 162.315 111.109 162.93C110.918 163.544 110.558 164.093 110.071 164.514C109.19 165.139 90.2739 175.899 87.7662 177.397C85.603 178.687 84.4734 176.972 84.0007 175.899C81.3808 170.419 79.3058 169.353 79.3058 169.353L105.048 154.187Z" fill="#37474F"/>
<path d="M100.513 247.396L79.2979 235.154C78.7439 234.791 78.2828 234.304 77.9516 233.73C77.6204 233.157 77.4285 232.514 77.3911 231.853V232.093C77.4272 231.432 77.6187 230.788 77.95 230.215C78.2813 229.641 78.7431 229.154 79.2979 228.792L121.961 204.164C122.55 203.864 123.202 203.707 123.863 203.707C124.525 203.707 125.177 203.864 125.766 204.164L146.981 216.414C147.537 216.773 147.999 217.259 148.331 217.831C148.662 218.404 148.853 219.047 148.888 219.707V219.467C148.853 220.127 148.663 220.77 148.333 221.344C148.003 221.917 147.543 222.405 146.989 222.768L104.327 247.396C103.736 247.696 103.083 247.853 102.42 247.853C101.757 247.853 101.104 247.696 100.513 247.396Z" fill="#BA68C8"/>
<path opacity="0.7" d="M100.513 247.396L79.2979 235.154C78.7439 234.791 78.2828 234.304 77.9516 233.73C77.6204 233.157 77.4285 232.514 77.3911 231.853V232.093C77.4272 231.432 77.6187 230.788 77.95 230.215C78.2813 229.641 78.7431 229.154 79.2979 228.792L121.961 204.164C122.55 203.864 123.202 203.707 123.863 203.707C124.525 203.707 125.177 203.864 125.766 204.164L146.981 216.414C147.537 216.773 147.999 217.259 148.331 217.831C148.662 218.404 148.853 219.047 148.888 219.707V219.467C148.853 220.127 148.663 220.77 148.333 221.344C148.003 221.917 147.543 222.405 146.989 222.768L104.327 247.396C103.736 247.696 103.083 247.853 102.42 247.853C101.757 247.853 101.104 247.696 100.513 247.396Z" fill="black"/>
<path d="M102.38 215.445L79.2658 228.792C78.711 229.154 78.2491 229.641 77.9179 230.215C77.5866 230.788 77.3951 231.432 77.359 232.093V231.853C77.3964 232.514 77.5883 233.157 77.9195 233.73C78.2507 234.304 78.7118 234.791 79.2658 235.154L100.481 247.396C101.067 247.708 101.724 247.865 102.388 247.852L102.38 215.445Z" fill="#BA68C8"/>
<path opacity="0.7" d="M102.38 215.445L79.2658 228.792C78.711 229.154 78.2491 229.641 77.9179 230.215C77.5866 230.788 77.3951 231.432 77.359 232.093V231.853C77.3964 232.514 77.5883 233.157 77.9195 233.73C78.2507 234.304 78.7118 234.791 79.2658 235.154L100.481 247.396C101.067 247.708 101.724 247.865 102.388 247.852L102.38 215.445Z" fill="black"/>
<path d="M79.2897 230.996L100.497 243.246C101.089 243.542 101.742 243.696 102.404 243.696C103.066 243.696 103.719 243.542 104.311 243.246L146.973 218.61C148.031 218.001 148.031 217.007 146.973 216.414L125.758 204.164C125.169 203.864 124.517 203.707 123.855 203.707C123.194 203.707 122.542 203.864 121.952 204.164L79.2897 228.792C78.2322 229.401 78.2322 230.387 79.2897 230.996Z" fill="#BA68C8"/>
<path opacity="0.5" d="M79.2897 230.996L100.497 243.246C101.089 243.542 101.742 243.696 102.404 243.696C103.066 243.696 103.719 243.542 104.311 243.246L146.973 218.61C148.031 218.001 148.031 217.007 146.973 216.414L125.758 204.164C125.169 203.864 124.517 203.707 123.855 203.707C123.194 203.707 122.542 203.864 121.952 204.164L79.2897 228.792C78.2322 229.401 78.2322 230.387 79.2897 230.996Z" fill="black"/>
<path d="M79.2898 226.966V229.001L101.306 241.715C101.641 241.908 102.021 242.009 102.408 242.009C102.794 242.009 103.174 241.908 103.509 241.715L146.973 216.615V214.515L102.404 236.147L79.2898 226.966Z" fill="#BA68C8"/>
<path d="M100.505 239.216L79.2897 226.966C78.734 226.605 78.2715 226.118 77.9401 225.544C77.6087 224.971 77.4178 224.327 77.3829 223.665V219.747C77.4178 219.085 77.6087 218.441 77.9401 217.868C78.2715 217.294 78.734 216.807 79.2897 216.446L121.952 191.81C122.542 191.51 123.194 191.353 123.855 191.353C124.517 191.353 125.169 191.51 125.758 191.81L146.973 204.06C147.529 204.421 147.991 204.908 148.323 205.482C148.654 206.055 148.845 206.699 148.88 207.361V211.287C148.84 211.934 148.646 212.562 148.314 213.12C147.983 213.677 147.523 214.147 146.973 214.491L104.311 239.192C103.723 239.496 103.072 239.657 102.411 239.661C101.749 239.665 101.096 239.512 100.505 239.216Z" fill="#BA68C8"/>
<path opacity="0.6" d="M100.505 239.216L79.2897 226.966C78.734 226.605 78.2715 226.118 77.9401 225.544C77.6087 224.971 77.4178 224.327 77.3829 223.665V219.747C77.4178 219.085 77.6087 218.441 77.9401 217.868C78.2715 217.294 78.734 216.807 79.2897 216.446L121.952 191.81C122.542 191.51 123.194 191.353 123.855 191.353C124.517 191.353 125.169 191.51 125.758 191.81L146.973 204.06C147.529 204.421 147.991 204.908 148.323 205.482C148.654 206.055 148.845 206.699 148.88 207.361V211.287C148.84 211.934 148.646 212.562 148.314 213.12C147.983 213.677 147.523 214.147 146.973 214.491L104.311 239.192C103.723 239.496 103.072 239.657 102.411 239.661C101.749 239.665 101.096 239.512 100.505 239.216Z" fill="black"/>
<path d="M102.38 203.099L79.2658 216.446C78.7101 216.807 78.2476 217.294 77.9162 217.868C77.5848 218.442 77.3938 219.086 77.359 219.747V223.665C77.3938 224.327 77.5848 224.971 77.9162 225.544C78.2476 226.118 78.7101 226.605 79.2658 226.966L100.481 239.216C101.064 239.529 101.718 239.686 102.38 239.672V203.099Z" fill="#BA68C8"/>
<path opacity="0.7" d="M102.38 203.099L79.2658 216.446C78.7101 216.807 78.2476 217.294 77.9162 217.868C77.5848 218.442 77.3938 219.086 77.359 219.747V223.665C77.3938 224.327 77.5848 224.971 77.9162 225.544C78.2476 226.118 78.7101 226.605 79.2658 226.966L100.481 239.216C101.064 239.529 101.718 239.686 102.38 239.672V203.099Z" fill="black"/>
<path d="M79.2897 218.641L100.497 230.891C101.088 231.192 101.741 231.349 102.404 231.349C103.066 231.349 103.72 231.192 104.311 230.891L146.973 206.263C148.031 205.654 148.031 204.661 146.973 204.06L125.758 191.81C125.169 191.51 124.517 191.353 123.855 191.353C123.194 191.353 122.542 191.51 121.952 191.81L79.2897 216.446C78.2322 217.055 78.2322 218.041 79.2897 218.641Z" fill="#BA68C8"/>
<path opacity="0.5" d="M79.2897 218.641L100.497 230.891C101.088 231.192 101.741 231.349 102.404 231.349C103.066 231.349 103.72 231.192 104.311 230.891L146.973 206.263C148.031 205.654 148.031 204.661 146.973 204.06L125.758 191.81C125.169 191.51 124.517 191.353 123.855 191.353C123.194 191.353 122.542 191.51 121.952 191.81L79.2897 216.446C78.2322 217.055 78.2322 218.041 79.2897 218.641Z" fill="black"/>
<path d="M108.877 208.907C106.53 210.269 106.53 212.456 108.877 213.802C110.197 214.466 111.654 214.812 113.132 214.812C114.609 214.812 116.066 214.466 117.386 213.802C119.733 212.456 119.733 210.269 117.386 208.907C116.067 208.24 114.61 207.892 113.132 207.892C111.653 207.892 110.196 208.24 108.877 208.907Z" fill="#BA68C8"/>
<path d="M143.52 210.341C143.303 210.484 143.122 210.675 142.992 210.901C142.863 211.127 142.788 211.38 142.775 211.639C142.775 212.12 143.112 212.32 143.52 212.088C143.738 211.946 143.919 211.754 144.048 211.528C144.178 211.303 144.252 211.05 144.265 210.79C144.265 210.309 143.929 210.109 143.52 210.341Z" fill="#BA68C8"/>
<path d="M143.52 213.218C143.303 213.36 143.122 213.552 142.992 213.777C142.863 214.003 142.788 214.256 142.775 214.515C142.775 214.996 143.112 215.196 143.52 214.964C143.741 214.825 143.924 214.634 144.054 214.407C144.183 214.181 144.256 213.927 144.265 213.666C144.265 213.186 143.929 212.985 143.52 213.218Z" fill="#BA68C8"/>
<path d="M91.6199 263.588C91.5219 263.587 91.4254 263.563 91.3395 263.515L70.7813 251.57C70.249 251.262 69.8072 250.819 69.5 250.286C69.1928 249.753 69.0311 249.149 69.0311 248.533C69.0311 247.918 69.1928 247.314 69.5 246.781C69.8072 246.248 70.249 245.805 70.7813 245.497L85.8514 236.796C85.9793 236.731 86.1272 236.718 86.2647 236.759C86.4022 236.799 86.5188 236.891 86.5907 237.015C86.6625 237.14 86.684 237.287 86.6508 237.426C86.6176 237.566 86.5323 237.687 86.4123 237.766L71.3501 246.442C70.9915 246.655 70.6943 246.958 70.488 247.32C70.2816 247.682 70.1731 248.092 70.1731 248.509C70.1731 248.926 70.2816 249.336 70.488 249.699C70.6943 250.061 70.9915 250.364 71.3501 250.576L91.9083 262.506C91.9774 262.542 92.0381 262.593 92.0863 262.654C92.1346 262.715 92.1693 262.786 92.1882 262.862C92.2071 262.937 92.2098 263.016 92.1961 263.093C92.1824 263.17 92.1526 263.243 92.1086 263.307C92.0605 263.394 91.9895 263.466 91.9033 263.515C91.8172 263.565 91.7192 263.59 91.6199 263.588Z" fill="#BA68C8"/>
<path d="M117.37 252.051L112.915 234.168C112.852 233.922 112.769 233.681 112.667 233.447L113.965 233.263L111.137 231.661C110.543 231.338 109.873 231.183 109.198 231.213C108.524 231.243 107.87 231.456 107.307 231.829L88.7597 242.565C87.4863 243.399 86.4274 244.521 85.6688 245.84C84.9101 247.16 84.4732 248.64 84.3933 250.16V271.663C84.3933 273.378 84.8099 274.556 85.6672 274.964L88.3271 276.503L87.6862 274.804L87.8304 274.748C90.8828 273.29 91.9885 270.63 92.9018 267.994L96.435 257.779C97.3483 255.143 99.6397 252.123 101.514 251.025C103.389 249.927 106.065 251.025 107.443 253.429L109.222 256.537C109.765 257.524 110.583 258.331 111.577 258.861L114.285 260.463L113.596 259.389C114.159 259.391 114.713 259.241 115.199 258.957C117.049 257.851 118.043 254.775 117.37 252.051Z" fill="#BA68C8"/>
<path opacity="0.7" d="M117.37 252.051L112.915 234.168C112.852 233.922 112.769 233.681 112.667 233.447L113.965 233.263L111.137 231.661C110.543 231.338 109.873 231.183 109.198 231.213C108.524 231.243 107.87 231.456 107.307 231.829L88.7597 242.565C87.4863 243.399 86.4274 244.521 85.6688 245.84C84.9101 247.16 84.4732 248.64 84.3933 250.16V271.663C84.3933 273.378 84.8099 274.556 85.6672 274.964L88.3271 276.503L87.6862 274.804L87.8304 274.748C90.8828 273.29 91.9885 270.63 92.9018 267.994L96.435 257.779C97.3483 255.143 99.6397 252.123 101.514 251.025C103.389 249.927 106.065 251.025 107.443 253.429L109.222 256.537C109.765 257.524 110.583 258.331 111.577 258.861L114.285 260.463L113.596 259.389C114.159 259.391 114.713 259.241 115.199 258.957C117.049 257.851 118.043 254.775 117.37 252.051Z" fill="black"/>
<path d="M112.667 233.447L113.965 233.263L111.137 231.661C110.543 231.338 109.873 231.183 109.198 231.213C108.524 231.243 107.87 231.456 107.307 231.829L88.7596 242.565C87.7236 243.21 86.8384 244.071 86.1638 245.088L90.5783 247.78L113.155 235.026L112.939 234.168C112.868 233.921 112.777 233.68 112.667 233.447Z" fill="#BA68C8"/>
<path opacity="0.5" d="M112.667 233.447L113.965 233.263L111.137 231.661C110.543 231.338 109.873 231.183 109.198 231.213C108.524 231.243 107.87 231.456 107.307 231.829L88.7596 242.565C87.7236 243.21 86.8384 244.071 86.1638 245.088L90.5783 247.78L113.155 235.026L112.939 234.168C112.868 233.921 112.777 233.68 112.667 233.447Z" fill="black"/>
<path d="M118.027 260.623C116.128 261.721 113.46 260.623 112.074 258.22L110.303 255.111C108.917 252.708 106.297 251.61 104.367 252.708C102.436 253.805 100.2 256.818 99.2871 259.461L95.762 269.668C94.8486 272.304 93.735 274.964 90.6825 276.422C88.3751 277.528 87.2615 276.134 87.2615 273.346V251.826C87.3441 250.307 87.7831 248.829 88.5431 247.511C89.303 246.192 90.3625 245.072 91.6359 244.239L110.215 233.463C110.716 233.113 111.297 232.896 111.905 232.833C112.513 232.77 113.127 232.863 113.688 233.104C114.25 233.345 114.741 233.725 115.114 234.208C115.488 234.692 115.732 235.263 115.823 235.867L120.278 253.757C120.935 256.433 119.933 259.526 118.027 260.623Z" fill="#BA68C8"/>
<path opacity="0.6" d="M118.027 260.623C116.128 261.721 113.46 260.623 112.074 258.22L110.303 255.111C108.917 252.708 106.297 251.61 104.367 252.708C102.436 253.805 100.2 256.818 99.2871 259.461L95.762 269.668C94.8486 272.304 93.735 274.964 90.6825 276.422C88.3751 277.528 87.2615 276.134 87.2615 273.346V251.826C87.3441 250.307 87.7831 248.829 88.5431 247.511C89.303 246.192 90.3625 245.072 91.6359 244.239L110.215 233.463C110.716 233.113 111.297 232.896 111.905 232.833C112.513 232.77 113.127 232.863 113.688 233.104C114.25 233.345 114.741 233.725 115.114 234.208C115.488 234.692 115.732 235.263 115.823 235.867L120.278 253.757C120.935 256.433 119.933 259.526 118.027 260.623Z" fill="black"/>
<path d="M110.824 239.656L111.289 242.292L113.348 240.978L113.804 243.614L111.753 244.936L112.218 247.572L110.167 248.886L109.702 246.25L107.651 247.572L107.187 244.928L109.238 243.614L108.773 240.978L110.824 239.656Z" fill="#263238"/>
<path d="M111.417 239.969L111.882 242.605L113.933 241.291L114.397 243.927L112.346 245.249L112.811 247.884L110.76 249.198L110.295 246.563L108.244 247.876L107.78 245.241L109.831 243.927L109.366 241.291L111.417 239.969Z" fill="#BA68C8"/>
<path d="M95.2812 248.99C95.336 249.361 95.2907 249.741 95.1498 250.089C95.009 250.436 94.7777 250.74 94.48 250.969C93.9112 251.33 93.3504 251.033 93.2222 250.304C93.1648 249.933 93.2089 249.553 93.35 249.204C93.491 248.856 93.7237 248.552 94.0234 248.325C94.5842 247.965 95.1691 248.261 95.2812 248.99Z" fill="#263238"/>
<path d="M96.2106 254.262C96.268 254.633 96.2238 255.013 96.0828 255.362C95.9417 255.71 95.7091 256.014 95.4094 256.241C94.8406 256.601 94.2797 256.305 94.1516 255.584C94.0933 255.212 94.137 254.832 94.2781 254.483C94.4192 254.135 94.6524 253.831 94.9527 253.605C95.5136 253.236 96.0824 253.533 96.2106 254.262Z" fill="#263238"/>
<path d="M97.797 250.304C97.8553 250.676 97.8115 251.056 97.6704 251.404C97.5293 251.753 97.2961 252.057 96.9958 252.283C96.427 252.652 95.8662 252.355 95.738 251.626C95.6797 251.254 95.7234 250.874 95.8645 250.526C96.0057 250.177 96.2388 249.873 96.5392 249.647C97.108 249.287 97.6688 249.575 97.797 250.304Z" fill="#263238"/>
<path d="M93.695 252.94C93.7533 253.311 93.7096 253.692 93.5685 254.04C93.4274 254.389 93.1942 254.693 92.8939 254.919C92.325 255.287 91.7642 254.991 91.636 254.262C91.5786 253.89 91.6228 253.51 91.7638 253.162C91.9049 252.814 92.1375 252.51 92.4372 252.283C93.006 251.922 93.5669 252.211 93.695 252.94Z" fill="#263238"/>
<path d="M95.3214 249.014C95.3788 249.386 95.3347 249.766 95.1936 250.114C95.0526 250.462 94.8199 250.766 94.5202 250.993C93.9514 251.354 93.3906 251.065 93.2624 250.336C93.2041 249.965 93.2478 249.584 93.389 249.236C93.5301 248.887 93.7633 248.583 94.0636 248.357C94.6324 247.989 95.1692 248.285 95.3214 249.014Z" fill="#263238"/>
<path d="M96.2506 254.286C96.3089 254.657 96.2652 255.038 96.1241 255.386C95.9829 255.735 95.7498 256.039 95.4494 256.265C94.8806 256.633 94.3198 256.337 94.1916 255.608C94.1333 255.236 94.177 254.856 94.3182 254.507C94.4593 254.159 94.6925 253.855 94.9928 253.629C95.5616 253.268 96.1224 253.557 96.2506 254.286Z" fill="#263238"/>
<path d="M97.837 250.336C97.8938 250.706 97.8493 251.085 97.7082 251.432C97.5672 251.779 97.3348 252.081 97.0358 252.307C96.475 252.676 95.9061 252.379 95.778 251.65C95.7223 251.279 95.7673 250.899 95.9082 250.551C96.0491 250.203 96.2808 249.899 96.5791 249.671C97.148 249.311 97.7088 249.607 97.837 250.336Z" fill="#263238"/>
<path d="M93.7349 252.972C93.7924 253.343 93.7482 253.724 93.6071 254.072C93.4661 254.42 93.2334 254.724 92.9338 254.951C92.3729 255.311 91.8041 255.015 91.6759 254.286C91.6211 253.915 91.6665 253.535 91.8073 253.188C91.9482 252.84 92.1794 252.536 92.4771 252.307C93.0459 251.947 93.6068 252.243 93.7349 252.972Z" fill="#263238"/>
<path d="M95.3614 249.038C95.4197 249.41 95.376 249.79 95.2348 250.139C95.0937 250.487 94.8605 250.791 94.5602 251.017C93.9994 251.386 93.4306 251.089 93.3024 250.36C93.2467 249.989 93.2917 249.609 93.4326 249.261C93.5735 248.913 93.8052 248.609 94.1035 248.381C94.6724 248.021 95.2332 248.309 95.3614 249.038Z" fill="#263238"/>
<path d="M96.2908 254.318C96.3476 254.688 96.3031 255.067 96.1621 255.414C96.021 255.761 95.7887 256.063 95.4897 256.289C94.9288 256.657 94.36 256.361 94.2318 255.632C94.1761 255.261 94.2211 254.881 94.362 254.533C94.5029 254.185 94.7347 253.881 95.033 253.653C95.6018 253.292 96.1626 253.589 96.2908 254.318Z" fill="#263238"/>
<path d="M97.885 250.36C97.9407 250.731 97.8957 251.111 97.7548 251.459C97.6139 251.807 97.3822 252.111 97.0838 252.339C96.515 252.7 95.9542 252.403 95.826 251.682C95.7677 251.311 95.8114 250.93 95.9526 250.582C96.0937 250.233 96.3269 249.929 96.6272 249.703C97.188 249.335 97.7568 249.631 97.885 250.36Z" fill="#263238"/>
<path d="M93.7831 252.996C93.8388 253.367 93.7938 253.747 93.6529 254.095C93.512 254.443 93.2803 254.747 92.9819 254.975C92.4131 255.335 91.8523 255.047 91.7241 254.318C91.6658 253.946 91.7095 253.566 91.8506 253.218C91.9917 252.869 92.2249 252.565 92.5252 252.339C93.0861 251.97 93.6549 252.267 93.7831 252.996Z" fill="#263238"/>
<path d="M95.4095 249.07C95.4652 249.442 95.4202 249.821 95.2793 250.169C95.1384 250.517 94.9067 250.821 94.6084 251.049C94.0395 251.41 93.4787 251.113 93.3505 250.384C93.2937 250.014 93.3382 249.635 93.4793 249.288C93.6204 248.941 93.8527 248.639 94.1517 248.413C94.7125 248.045 95.2814 248.365 95.4095 249.07Z" fill="#263238"/>
<path d="M96.3389 254.342C96.3946 254.713 96.3496 255.093 96.2087 255.441C96.0677 255.789 95.836 256.093 95.5377 256.321C94.9689 256.681 94.408 256.393 94.2798 255.664C94.2216 255.292 94.2653 254.912 94.4064 254.564C94.5475 254.215 94.7807 253.911 95.081 253.685C95.6419 253.316 96.2107 253.613 96.3389 254.342Z" fill="#263238"/>
<path d="M97.9252 250.384C97.9834 250.756 97.9397 251.136 97.7986 251.485C97.6575 251.833 97.4243 252.137 97.124 252.363C96.5551 252.732 95.9943 252.435 95.8661 251.706C95.8087 251.335 95.8529 250.955 95.9939 250.606C96.135 250.258 96.3676 249.954 96.6673 249.727C97.2361 249.367 97.797 249.655 97.9252 250.384Z" fill="#263238"/>
<path d="M93.8232 253.02C93.8815 253.392 93.8378 253.772 93.6966 254.121C93.5555 254.469 93.3224 254.773 93.022 254.999C92.4532 255.368 91.8924 255.071 91.7642 254.342C91.7068 253.971 91.7509 253.591 91.892 253.242C92.033 252.894 92.2657 252.59 92.5654 252.363C93.1342 252.003 93.695 252.291 93.8232 253.02Z" fill="#263238"/>
<path d="M95.4496 249.094C95.507 249.466 95.4628 249.846 95.3218 250.194C95.1808 250.543 94.9481 250.846 94.6484 251.073C94.0796 251.434 93.5188 251.145 93.3906 250.416C93.3323 250.045 93.376 249.664 93.5171 249.316C93.6582 248.967 93.8914 248.664 94.1917 248.437C94.7606 248.069 95.3214 248.365 95.4496 249.094Z" fill="#263238"/>
<path d="M96.3789 254.366C96.4372 254.738 96.3934 255.118 96.2523 255.466C96.1112 255.815 95.878 256.119 95.5777 256.345C95.0089 256.713 94.448 256.417 94.3199 255.688C94.2624 255.317 94.3066 254.936 94.4476 254.588C94.5887 254.24 94.8214 253.936 95.121 253.709C95.6899 253.349 96.2507 253.637 96.3789 254.366Z" fill="#263238"/>
<path d="M97.9653 250.416C98.0218 250.788 97.9773 251.167 97.8363 251.516C97.6953 251.864 97.4631 252.168 97.1641 252.395C96.5953 252.756 96.0345 252.459 95.9063 251.73C95.8489 251.359 95.893 250.979 96.0341 250.63C96.1751 250.282 96.4078 249.978 96.7075 249.751C97.2763 249.391 97.8371 249.687 97.9653 250.416Z" fill="#263238"/>
<path d="M93.8631 253.052C93.9205 253.424 93.8764 253.804 93.7353 254.152C93.5943 254.5 93.3616 254.804 93.0619 255.031C92.5011 255.392 91.9323 255.095 91.8041 254.366C91.7491 253.996 91.7944 253.618 91.9353 253.271C92.0762 252.924 92.3076 252.622 92.6053 252.395C93.1741 252.027 93.7349 252.323 93.8631 253.052Z" fill="#263238"/>
<path d="M95.4896 249.118C95.5479 249.49 95.5041 249.87 95.363 250.219C95.2219 250.567 94.9887 250.871 94.6884 251.097C94.1276 251.466 93.5587 251.169 93.4305 250.44C93.3749 250.069 93.4198 249.689 93.5608 249.341C93.7017 248.993 93.9334 248.689 94.2317 248.461C94.8006 248.101 95.3614 248.365 95.4896 249.118Z" fill="#263238"/>
<path d="M96.4189 254.398C96.4754 254.77 96.4309 255.149 96.2899 255.498C96.1489 255.846 95.9167 256.15 95.6177 256.377C95.0569 256.738 94.4881 256.441 94.3599 255.712C94.3042 255.341 94.3492 254.961 94.4901 254.613C94.631 254.265 94.8627 253.961 95.161 253.733C95.7299 253.373 96.2907 253.669 96.4189 254.398Z" fill="#263238"/>
<path d="M98.0052 250.44C98.0626 250.812 98.0185 251.192 97.8774 251.54C97.7364 251.889 97.5037 252.192 97.204 252.419C96.6432 252.78 96.0744 252.491 95.9462 251.762C95.8896 251.391 95.9342 251.011 96.0752 250.663C96.2162 250.315 96.4484 250.011 96.7474 249.783C97.3162 249.415 97.877 249.711 98.0052 250.44Z" fill="#263238"/>
<path d="M93.9113 253.076C93.9669 253.448 93.922 253.827 93.781 254.175C93.6401 254.523 93.4084 254.827 93.1101 255.055C92.5412 255.416 91.9804 255.127 91.8522 254.398C91.7939 254.027 91.8377 253.646 91.9788 253.298C92.1199 252.949 92.3531 252.646 92.6534 252.419C93.2142 252.051 93.7831 252.371 93.9113 253.076Z" fill="#263238"/>
<path d="M95.5376 249.166C95.5933 249.538 95.5483 249.917 95.4074 250.265C95.2665 250.613 95.0348 250.917 94.7364 251.145C94.1676 251.506 93.6068 251.209 93.4786 250.488C93.4203 250.117 93.464 249.736 93.6051 249.388C93.7463 249.039 93.9794 248.736 94.2798 248.509C94.8406 248.125 95.4094 248.421 95.5376 249.166Z" fill="#263238"/>
<path d="M96.467 254.422C96.5227 254.793 96.4778 255.173 96.3368 255.521C96.1959 255.869 95.9642 256.173 95.6659 256.401C95.097 256.762 94.5362 256.473 94.408 255.744C94.3497 255.373 94.3935 254.992 94.5346 254.644C94.6757 254.295 94.9089 253.991 95.2092 253.765C95.77 253.397 96.3389 253.693 96.467 254.422Z" fill="#263238"/>
<path d="M98.0534 250.464C98.11 250.836 98.0654 251.215 97.9244 251.564C97.7835 251.912 97.5513 252.216 97.2523 252.443C96.6834 252.812 96.1226 252.515 95.9944 251.786C95.937 251.415 95.9812 251.035 96.1222 250.686C96.2633 250.338 96.4959 250.034 96.7956 249.807C97.3564 249.447 97.9253 249.735 98.0534 250.464Z" fill="#263238"/>
<path d="M93.9514 253.1C94.0097 253.472 93.9659 253.852 93.8248 254.201C93.6837 254.549 93.4505 254.853 93.1502 255.079C92.5814 255.448 92.0206 255.151 91.8924 254.422C91.835 254.051 91.8791 253.671 92.0202 253.322C92.1612 252.974 92.3939 252.67 92.6935 252.443C93.2624 252.083 93.8232 252.371 93.9514 253.1Z" fill="#263238"/>
<path d="M95.5776 249.166C95.6359 249.538 95.5922 249.918 95.4511 250.267C95.31 250.615 95.0768 250.919 94.7765 251.145C94.2076 251.514 93.6468 251.217 93.5186 250.488C93.4603 250.117 93.5041 249.736 93.6452 249.388C93.7863 249.039 94.0195 248.736 94.3198 248.509C94.8886 248.149 95.4494 248.445 95.5776 249.166Z" fill="#263238"/>
<path d="M96.5071 254.446C96.5653 254.818 96.5216 255.198 96.3805 255.547C96.2394 255.895 96.0062 256.199 95.7059 256.425C95.137 256.794 94.5762 256.497 94.448 255.768C94.3906 255.397 94.4348 255.017 94.5758 254.668C94.7169 254.32 94.9496 254.016 95.2492 253.789C95.818 253.429 96.3789 253.717 96.5071 254.446Z" fill="#263238"/>
<path d="M98.0935 250.496C98.1509 250.868 98.1068 251.248 97.9657 251.596C97.8247 251.945 97.592 252.248 97.2923 252.475C96.7235 252.836 96.1627 252.539 96.0345 251.81C95.9777 251.44 96.0222 251.061 96.1633 250.714C96.3043 250.367 96.5367 250.065 96.8357 249.839C97.4045 249.471 97.9653 249.767 98.0935 250.496Z" fill="#263238"/>
<path d="M93.9915 253.172C94.0489 253.544 94.0047 253.924 93.8637 254.272C93.7226 254.621 93.4899 254.924 93.1903 255.151C92.6295 255.512 92.0606 255.215 91.9324 254.494C91.8741 254.123 91.9179 253.742 92.059 253.394C92.2001 253.045 92.4333 252.742 92.7336 252.515C93.3025 252.107 93.8633 252.371 93.9915 253.172Z" fill="#263238"/>
<path d="M95.6179 249.206C95.6747 249.577 95.6302 249.955 95.4891 250.302C95.3481 250.649 95.1157 250.952 94.8167 251.177C94.2479 251.546 93.6871 251.249 93.5589 250.52C93.5015 250.149 93.5456 249.769 93.6867 249.42C93.8277 249.072 94.0604 248.768 94.36 248.541C94.9289 248.181 95.4897 248.477 95.6179 249.206Z" fill="#263238"/>
<path d="M96.5472 254.478C96.6047 254.85 96.5605 255.23 96.4194 255.578C96.2784 255.926 96.0457 256.23 95.7461 256.457C95.1852 256.818 94.6164 256.521 94.4882 255.792C94.4314 255.422 94.4759 255.043 94.617 254.696C94.7581 254.349 94.9904 254.047 95.2894 253.821C95.8582 253.453 96.4191 253.749 96.5472 254.478Z" fill="#263238"/>
<path d="M98.1334 250.52C98.1908 250.892 98.1466 251.272 98.0056 251.62C97.8645 251.969 97.6318 252.272 97.3322 252.499C96.7714 252.86 96.2025 252.571 96.0744 251.842C96.0178 251.471 96.0624 251.091 96.2034 250.743C96.3443 250.395 96.5765 250.091 96.8755 249.863C97.4444 249.495 98.0052 249.791 98.1334 250.52Z" fill="#263238"/>
<path d="M94.0315 253.172C94.0898 253.544 94.046 253.924 93.9049 254.273C93.7638 254.621 93.5306 254.925 93.2303 255.151C92.6695 255.52 92.1086 255.223 91.9724 254.494C91.9159 254.123 91.9605 253.743 92.1014 253.395C92.2424 253.047 92.4746 252.743 92.7736 252.515C93.3424 252.131 93.9033 252.427 94.0315 253.172Z" fill="#263238"/>
<path d="M95.6578 249.23C95.7152 249.602 95.671 249.982 95.53 250.33C95.3889 250.679 95.1563 250.982 94.8566 251.209C94.2958 251.57 93.727 251.273 93.5988 250.552C93.5422 250.181 93.5868 249.801 93.7278 249.453C93.8688 249.105 94.101 248.801 94.3999 248.574C94.9688 248.205 95.5296 248.501 95.6578 249.23Z" fill="#263238"/>
<path d="M96.5872 254.502C96.6446 254.874 96.6005 255.254 96.4594 255.602C96.3184 255.951 96.0857 256.254 95.786 256.481C95.2252 256.842 94.6644 256.553 94.5362 255.824C94.4779 255.453 94.5216 255.072 94.6628 254.724C94.8039 254.375 95.0371 254.072 95.3374 253.845C95.8982 253.477 96.459 253.773 96.5872 254.502Z" fill="#263238"/>
<path d="M98.1815 250.544C98.238 250.916 98.1935 251.296 98.0525 251.644C97.9115 251.992 97.6793 252.296 97.3803 252.523C96.8115 252.892 96.2507 252.595 96.1225 251.866C96.0651 251.495 96.1092 251.115 96.2503 250.766C96.3913 250.418 96.624 250.114 96.9236 249.887C97.4845 249.527 98.0533 249.823 98.1815 250.544Z" fill="#263238"/>
<path d="M94.0794 253.172C94.1345 253.542 94.0892 253.921 93.9482 254.267C93.8073 254.614 93.5759 254.916 93.2783 255.143C92.7094 255.512 92.1486 255.215 92.0204 254.486C91.963 254.115 92.0072 253.735 92.1482 253.386C92.2893 253.038 92.5219 252.734 92.8216 252.507C93.3824 252.163 93.9512 252.459 94.0794 253.172Z" fill="#263238"/>
<path d="M95.7059 249.254C95.7624 249.626 95.7179 250.006 95.5769 250.354C95.4359 250.702 95.2037 251.006 94.9047 251.233C94.3359 251.602 93.7751 251.306 93.6469 250.576C93.5895 250.205 93.6336 249.825 93.7747 249.477C93.9157 249.128 94.1484 248.824 94.4481 248.598C95.0089 248.237 95.5777 248.525 95.7059 249.254Z" fill="#263238"/>
<path d="M96.6354 254.526C96.6919 254.898 96.6473 255.277 96.5063 255.626C96.3654 255.974 96.1332 256.278 95.8342 256.505C95.2653 256.874 94.7045 256.577 94.5763 255.848C94.5189 255.477 94.5631 255.097 94.7041 254.748C94.8452 254.4 95.0778 254.096 95.3775 253.869C95.9704 253.509 96.5072 253.805 96.6354 254.526Z" fill="#263238"/>
<path d="M98.2216 250.576C98.279 250.948 98.2348 251.328 98.0938 251.676C97.9527 252.025 97.72 252.328 97.4204 252.555C96.8515 252.916 96.2907 252.619 96.1625 251.898C96.1042 251.527 96.148 251.147 96.2891 250.798C96.4302 250.449 96.6634 250.146 96.9637 249.919C97.5726 249.551 98.0934 249.847 98.2216 250.576Z" fill="#263238"/>
<path d="M94.1196 253.212C94.1771 253.584 94.1329 253.964 93.9918 254.312C93.8508 254.661 93.6181 254.964 93.3185 255.191C92.7496 255.552 92.1888 255.255 92.0606 254.534C92.0023 254.163 92.0461 253.782 92.1872 253.434C92.3283 253.085 92.5615 252.782 92.8618 252.555C93.4306 252.187 93.9915 252.483 94.1196 253.212Z" fill="#263238"/>
<path d="M95.7461 249.287C95.8026 249.658 95.758 250.038 95.6171 250.386C95.4761 250.734 95.2439 251.038 94.9449 251.265C94.3761 251.626 93.8152 251.33 93.687 250.6C93.6296 250.229 93.6738 249.849 93.8148 249.501C93.9559 249.152 94.1886 248.848 94.4882 248.622C95.0571 248.261 95.6179 248.557 95.7461 249.287Z" fill="#263238"/>
<path d="M96.6754 254.558C96.7328 254.93 96.6887 255.31 96.5476 255.658C96.4066 256.007 96.1739 256.31 95.8743 256.537C95.3054 256.898 94.7446 256.601 94.6164 255.88C94.5581 255.509 94.6018 255.128 94.743 254.78C94.8841 254.431 95.1173 254.128 95.4176 253.901C95.9704 253.533 96.5472 253.829 96.6754 254.558Z" fill="#263238"/>
<path d="M98.2617 250.6C98.32 250.972 98.2762 251.352 98.1351 251.701C97.994 252.049 97.7608 252.353 97.4605 252.579C96.8997 252.948 96.3308 252.651 96.2026 251.922C96.1461 251.551 96.1907 251.171 96.3317 250.823C96.4726 250.475 96.7048 250.171 97.0038 249.944C97.5727 249.575 98.1335 249.871 98.2617 250.6Z" fill="#263238"/>
<path d="M94.1596 253.236C94.2179 253.608 94.1742 253.988 94.0331 254.337C93.8919 254.685 93.6588 254.989 93.3584 255.215C92.7976 255.584 92.2288 255.287 92.1006 254.558C92.0449 254.187 92.0899 253.808 92.2308 253.459C92.3717 253.111 92.6034 252.807 92.9018 252.579C93.4706 252.219 94.0314 252.507 94.1596 253.236Z" fill="#263238"/>
<path d="M110.824 239.656L111.417 239.969L109.366 241.291L108.773 240.978L110.824 239.656Z" fill="#263238"/>
<path d="M109.238 243.614L109.831 243.927L107.78 245.241L107.187 244.928L109.238 243.614Z" fill="#263238"/>
<path d="M111.882 242.605L111.77 241.988L113.348 240.978L113.933 241.291L111.882 242.605Z" fill="#263238"/>
<path d="M107.187 244.928L107.78 245.241L108.244 247.876L107.651 247.572L107.187 244.928Z" fill="#263238"/>
<path d="M110.167 248.886L110.76 249.198L110.295 246.562L109.815 246.875L110.167 248.886Z" fill="#263238"/>
<path d="M95.7461 249.287C95.8026 249.658 95.758 250.038 95.6171 250.386C95.4761 250.734 95.2439 251.038 94.9449 251.265C94.3761 251.626 93.8152 251.33 93.687 250.6C93.6296 250.229 93.6738 249.849 93.8148 249.501C93.9559 249.152 94.1886 248.848 94.4882 248.622C95.0571 248.261 95.6179 248.557 95.7461 249.287Z" fill="#BA68C8"/>
<path d="M96.6754 254.558C96.7328 254.93 96.6887 255.31 96.5476 255.658C96.4066 256.007 96.1739 256.31 95.8743 256.537C95.3054 256.898 94.7446 256.601 94.6164 255.88C94.5581 255.509 94.6018 255.128 94.743 254.78C94.8841 254.431 95.1173 254.128 95.4176 253.901C95.9704 253.533 96.5472 253.829 96.6754 254.558Z" fill="#BA68C8"/>
<path d="M98.2617 250.6C98.32 250.972 98.2762 251.352 98.1351 251.701C97.994 252.049 97.7608 252.353 97.4605 252.579C96.8997 252.948 96.3308 252.651 96.2026 251.922C96.1461 251.551 96.1907 251.171 96.3317 250.823C96.4726 250.475 96.7048 250.171 97.0038 249.944C97.5727 249.575 98.1335 249.871 98.2617 250.6Z" fill="#BA68C8"/>
<path d="M94.1596 253.236C94.2179 253.608 94.1742 253.988 94.0331 254.337C93.8919 254.685 93.6588 254.989 93.3584 255.215C92.7976 255.584 92.2288 255.287 92.1006 254.558C92.0449 254.187 92.0899 253.808 92.2308 253.459C92.3717 253.111 92.6034 252.807 92.9018 252.579C93.4706 252.219 94.0314 252.507 94.1596 253.236Z" fill="#BA68C8"/>
<path d="M115.455 25.3895L106.842 30.3568C106.89 29.9794 106.914 29.5995 106.914 29.2191V26.7275C106.914 22.2889 103.798 20.4863 99.9602 22.7216C98.3011 23.738 96.8846 25.1053 95.8101 26.7275C95.1772 21.1192 90.8028 19.0682 85.4829 22.1367C79.7305 25.4616 75.0676 33.5375 75.0676 40.1712V43.9047C75.031 45.3949 75.3323 46.874 75.9489 48.2311L68.7944 52.3571C67.6708 53.0909 66.7358 54.0788 66.0649 55.241C65.394 56.4032 65.0062 57.707 64.9327 59.047C64.9327 61.5066 66.6633 62.5081 68.7944 61.2742L115.455 34.3386C116.579 33.6049 117.514 32.617 118.185 31.4548C118.855 30.2926 119.243 28.9887 119.317 27.6488C119.317 25.1572 117.602 24.1557 115.455 25.3895Z" fill="#F0F0F0"/>
<path d="M294.398 249.255L292.796 248.349L293.933 247.836C293.933 247.836 294.823 248.077 294.847 248.117C294.839 248.324 294.818 248.53 294.783 248.734L294.398 249.255Z" fill="#E0E0E0"/>
<path d="M294.398 249.255L292.796 248.349L293.933 247.836C293.933 247.836 294.823 248.077 294.847 248.117C294.839 248.324 294.818 248.53 294.783 248.734L294.398 249.255Z" fill="#BA68C8"/>
<path opacity="0.1" d="M294.398 249.255L292.796 248.349L293.933 247.836C293.933 247.836 294.823 248.077 294.847 248.117C294.839 248.324 294.818 248.53 294.783 248.734L294.398 249.255Z" fill="white"/>
<path d="M234.774 279.291C235.485 279.65 236.27 279.838 237.066 279.838C237.862 279.838 238.647 279.65 239.357 279.291L290.745 249.647L213.832 205.23L212.037 204.196L160.649 233.84C159.392 234.569 159.392 235.763 160.649 236.484L234.774 279.291Z" fill="#BA68C8"/>
<path opacity="0.8" d="M234.774 279.291C235.485 279.65 236.27 279.838 237.066 279.838C237.862 279.838 238.647 279.65 239.357 279.291L290.745 249.647L213.832 205.23L212.037 204.196L160.649 233.84C159.392 234.569 159.392 235.763 160.649 236.484L234.774 279.291Z" fill="white"/>
<path d="M254.075 223.24L271.997 233.551L283.598 226.854L297.066 234.657V244.359C297.066 245.537 295.744 247.211 295.263 246.939C294.374 247.154 293.51 247.46 292.683 247.852C291.336 248.619 290.085 249.544 288.958 250.608L247.777 226.838L254.075 223.24Z" fill="#E0E0E0"/>
<path d="M254.075 223.24L271.997 233.551L283.598 226.854L297.066 234.657V244.359C297.066 245.537 295.744 247.211 295.263 246.939C294.374 247.154 293.51 247.46 292.683 247.852C291.336 248.619 290.085 249.544 288.958 250.608L247.777 226.838L254.075 223.24Z" fill="#BA68C8"/>
<path opacity="0.1" d="M254.075 223.24L271.997 233.551L283.598 226.854L297.066 234.657V244.359C297.066 245.537 295.744 247.211 295.263 246.939C294.374 247.154 293.51 247.46 292.683 247.852C291.336 248.619 290.085 249.544 288.958 250.608L247.777 226.838L254.075 223.24Z" fill="white"/>
<path d="M239.381 279.283L242.482 277.488L289.006 250.632C289.041 250.025 289.262 249.443 289.639 248.966C290.188 248.236 290.881 247.625 291.674 247.171C292.338 246.765 293.092 246.531 293.869 246.49C294.389 246.483 294.897 246.65 295.311 246.963C295.917 245.774 296.212 244.451 296.169 243.117H297.931C297.931 245.521 297.13 247.989 296.145 248.549L295.255 249.07C294.75 249.359 294.35 249.375 294.35 249.07V248.597C294.35 248.069 293.549 248.093 292.555 248.67C291.562 249.246 290.769 250.128 290.769 250.656V251.137C290.769 251.41 290.08 252.019 289.246 252.499L244.252 278.481L239.381 281.286C238.676 281.65 237.892 281.835 237.098 281.822V279.787C237.89 279.82 238.677 279.646 239.381 279.283Z" fill="#BA68C8"/>
<path opacity="0.6" d="M239.381 279.283L242.482 277.488L289.006 250.632C289.041 250.025 289.262 249.443 289.639 248.966C290.188 248.236 290.881 247.625 291.674 247.171C292.338 246.765 293.092 246.531 293.869 246.49C294.389 246.483 294.897 246.65 295.311 246.963C295.917 245.774 296.212 244.451 296.169 243.117H297.931C297.931 245.521 297.13 247.989 296.145 248.549L295.255 249.07C294.75 249.359 294.35 249.375 294.35 249.07V248.597C294.35 248.069 293.549 248.093 292.555 248.67C291.562 249.246 290.769 250.128 290.769 250.656V251.137C290.769 251.41 290.08 252.019 289.246 252.499L244.252 278.481L239.381 281.286C238.676 281.65 237.892 281.835 237.098 281.822V279.787C237.89 279.82 238.677 279.646 239.381 279.283Z" fill="white"/>
<path d="M159.688 235.122V237.197C159.714 237.474 159.813 237.739 159.973 237.967C160.133 238.194 160.349 238.376 160.601 238.495L229.879 278.489L234.742 281.294C235.447 281.658 236.232 281.843 237.026 281.83V279.795C236.227 279.814 235.437 279.624 234.734 279.243L231.642 277.456L160.601 236.428C160.348 236.309 160.131 236.125 159.971 235.896C159.811 235.667 159.713 235.4 159.688 235.122Z" fill="#BA68C8"/>
<path opacity="0.1" d="M159.688 235.122V237.197C159.714 237.474 159.813 237.739 159.973 237.967C160.133 238.194 160.349 238.376 160.601 238.495L229.879 278.489L234.742 281.294C235.447 281.658 236.232 281.843 237.026 281.83V279.795C236.227 279.814 235.437 279.624 234.734 279.243L231.642 277.456L160.601 236.428C160.348 236.309 160.131 236.125 159.971 235.896C159.811 235.667 159.713 235.4 159.688 235.122Z" fill="white"/>
<path d="M237.066 266.119V278.009C237.596 278.025 238.121 277.9 238.588 277.648L244.196 274.395L287.131 249.607V237.205L237.066 266.119Z" fill="white"/>
<path d="M161.923 224.218V233.359C161.951 233.888 162.104 234.404 162.368 234.863C162.633 235.322 163.002 235.713 163.445 236.003L229.943 274.379L235.551 277.632C236.019 277.883 236.543 278.008 237.074 277.993V267.377L161.923 224.218Z" fill="#F0F0F0"/>
<path d="M287.163 249.591C287.206 248.983 287.432 248.402 287.812 247.925C288.364 247.199 289.056 246.591 289.847 246.138C290.506 245.726 291.259 245.488 292.034 245.449C292.556 245.445 293.065 245.611 293.485 245.922V233.543L287.179 237.189L287.163 249.591Z" fill="#455A64"/>
<path d="M289.687 246.242C288.957 246.673 288.32 247.245 287.812 247.925C287.432 248.402 287.206 248.983 287.163 249.591V237.766H289.679L289.687 246.242Z" fill="#F5F5F5"/>
<path d="M213.816 190.68L290.729 235.098V236.131C290.729 236.7 291.53 236.932 292.515 236.339C293.501 235.747 294.31 235.058 294.31 234.072L294.406 233.095L216.027 187.844L215.714 187.66C215.632 187.805 215.586 187.967 215.578 188.133V188.613C215.594 189.206 214.801 190.128 213.816 190.68Z" fill="#BA68C8"/>
<path opacity="0.6" d="M213.816 190.68L290.729 235.098V236.131C290.729 236.7 291.53 236.932 292.515 236.339C293.501 235.747 294.31 235.058 294.31 234.072L294.406 233.095L216.027 187.844L215.714 187.66C215.632 187.805 215.586 187.967 215.578 188.133V188.613C215.594 189.206 214.801 190.128 213.816 190.68Z" fill="white"/>
<path d="M239.381 264.797L289.631 235.779C290.264 235.45 290.849 235.178 291.097 235.306L290.769 235.122L213.856 190.704L212.958 190.184C212.555 190.069 212.132 190.042 211.718 190.104C211.303 190.166 210.907 190.316 210.555 190.544L160.698 219.339C159.44 220.068 159.44 221.253 160.698 221.982L234.838 264.797C235.544 265.151 236.321 265.334 237.11 265.334C237.898 265.334 238.676 265.151 239.381 264.797Z" fill="#BA68C8"/>
<path opacity="0.8" d="M239.381 264.797L289.631 235.779C290.264 235.45 290.849 235.178 291.097 235.306L290.769 235.122L213.856 190.704L212.958 190.184C212.555 190.069 212.132 190.042 211.718 190.104C211.303 190.166 210.907 190.316 210.555 190.544L160.698 219.339C159.44 220.068 159.44 221.253 160.698 221.982L234.838 264.797C235.544 265.151 236.321 265.334 237.11 265.334C237.898 265.334 238.676 265.151 239.381 264.797Z" fill="white"/>
<path d="M215.73 187.684L216.043 187.868L294.422 233.143C294.461 233.059 294.519 232.985 294.59 232.927L294.854 232.774L295.423 232.454L296.12 232.045C296.256 231.955 296.417 231.914 296.579 231.929C296.741 231.943 296.893 232.013 297.01 232.125C297.043 232.148 297.073 232.174 297.098 232.205C297.192 232.302 297.271 232.413 297.33 232.534C297.415 232.673 297.485 232.821 297.538 232.975C297.6 233.139 297.651 233.308 297.691 233.479C297.739 233.68 297.771 233.872 297.811 234.08C297.833 234.199 297.846 234.32 297.851 234.441C297.851 234.537 297.851 234.625 297.851 234.737C297.851 234.849 297.851 235.186 297.851 235.418V233.215C297.768 232.491 297.518 231.796 297.12 231.186C296.722 230.576 296.188 230.066 295.56 229.698L221.411 186.883C220.8 186.522 220.114 186.308 219.406 186.256C218.699 186.205 217.989 186.318 217.333 186.586L216.395 187.131L215.995 187.356C215.879 187.439 215.787 187.553 215.73 187.684Z" fill="#BA68C8"/>
<path opacity="0.8" d="M215.73 187.684L216.043 187.868L294.422 233.143C294.461 233.059 294.519 232.985 294.59 232.927L294.854 232.774L295.423 232.454L296.12 232.045C296.256 231.955 296.417 231.914 296.579 231.929C296.741 231.943 296.893 232.013 297.01 232.125C297.043 232.148 297.073 232.174 297.098 232.205C297.192 232.302 297.271 232.413 297.33 232.534C297.415 232.673 297.485 232.821 297.538 232.975C297.6 233.139 297.651 233.308 297.691 233.479C297.739 233.68 297.771 233.872 297.811 234.08C297.833 234.199 297.846 234.32 297.851 234.441C297.851 234.537 297.851 234.625 297.851 234.737C297.851 234.849 297.851 235.186 297.851 235.418V233.215C297.768 232.491 297.518 231.796 297.12 231.186C296.722 230.576 296.188 230.066 295.56 229.698L221.411 186.883C220.8 186.522 220.114 186.308 219.406 186.256C218.699 186.205 217.989 186.318 217.333 186.586L216.395 187.131L215.995 187.356C215.879 187.439 215.787 187.553 215.73 187.684Z" fill="white"/>
<path d="M239.381 264.805L242.49 263.003L278.23 242.38L289.639 235.795C290.44 235.314 291.113 235.146 291.153 235.394V235.907C291.153 236.484 291.954 236.484 292.94 235.907C293.305 235.748 293.625 235.501 293.871 235.188C294.118 234.874 294.282 234.505 294.35 234.112V233.551C294.338 233.426 294.356 233.3 294.402 233.183C294.448 233.066 294.521 232.962 294.614 232.878L294.879 232.726L295.448 232.406L296.145 231.997C296.28 231.907 296.442 231.866 296.603 231.881C296.765 231.895 296.917 231.965 297.034 232.077C297.067 232.099 297.097 232.126 297.122 232.157C297.182 232.22 297.233 232.29 297.274 232.366C297.308 232.4 297.335 232.441 297.354 232.486C297.44 232.625 297.509 232.772 297.563 232.926C297.624 233.091 297.675 233.26 297.715 233.431C297.763 233.632 297.795 233.824 297.835 234.032C297.857 234.151 297.87 234.272 297.875 234.393C297.875 234.489 297.875 234.577 297.875 234.689C297.875 234.801 297.875 235.138 297.875 235.37V243.093H296.112V235.37C296.112 235.186 296.112 235.002 296.112 234.825L296.064 234.385C296.068 234.372 296.068 234.358 296.064 234.345C295.904 235.747 294.566 236.996 293.404 237.653C292.759 238.06 292.019 238.292 291.257 238.326C290.67 238.334 290.1 238.126 289.655 237.742L289.495 237.83L289.19 238.014L244.196 263.996L239.381 266.832C238.687 267.187 237.917 267.366 237.138 267.353V265.318C237.916 265.335 238.687 265.158 239.381 264.805Z" fill="#BA68C8"/>
<path opacity="0.6" d="M239.381 264.805L242.49 263.003L278.23 242.38L289.639 235.795C290.44 235.314 291.113 235.146 291.153 235.394V235.907C291.153 236.484 291.954 236.484 292.94 235.907C293.305 235.748 293.625 235.501 293.871 235.188C294.118 234.874 294.282 234.505 294.35 234.112V233.551C294.338 233.426 294.356 233.3 294.402 233.183C294.448 233.066 294.521 232.962 294.614 232.878L294.879 232.726L295.448 232.406L296.145 231.997C296.28 231.907 296.442 231.866 296.603 231.881C296.765 231.895 296.917 231.965 297.034 232.077C297.067 232.099 297.097 232.126 297.122 232.157C297.182 232.22 297.233 232.29 297.274 232.366C297.308 232.4 297.335 232.441 297.354 232.486C297.44 232.625 297.509 232.772 297.563 232.926C297.624 233.091 297.675 233.26 297.715 233.431C297.763 233.632 297.795 233.824 297.835 234.032C297.857 234.151 297.87 234.272 297.875 234.393C297.875 234.489 297.875 234.577 297.875 234.689C297.875 234.801 297.875 235.138 297.875 235.37V243.093H296.112V235.37C296.112 235.186 296.112 235.002 296.112 234.825L296.064 234.385C296.068 234.372 296.068 234.358 296.064 234.345C295.904 235.747 294.566 236.996 293.404 237.653C292.759 238.06 292.019 238.292 291.257 238.326C290.67 238.334 290.1 238.126 289.655 237.742L289.495 237.83L289.19 238.014L244.196 263.996L239.381 266.832C238.687 267.187 237.917 267.366 237.138 267.353V265.318C237.916 265.335 238.687 265.158 239.381 264.805Z" fill="white"/>
<path d="M159.688 220.636V222.727C159.713 223.006 159.811 223.273 159.971 223.502C160.131 223.731 160.348 223.914 160.601 224.033L229.879 264.028L234.742 266.84C235.447 267.205 236.232 267.389 237.026 267.377V265.342C236.228 265.36 235.439 265.172 234.734 264.797L231.642 263.011L160.601 221.982C160.343 221.86 160.122 221.671 159.961 221.434C159.801 221.197 159.706 220.922 159.688 220.636Z" fill="#BA68C8"/>
<path opacity="0.1" d="M159.688 220.636V222.727C159.713 223.006 159.811 223.273 159.971 223.502C160.131 223.731 160.348 223.914 160.601 224.033L229.879 264.028L234.742 266.84C235.447 267.205 236.232 267.389 237.026 267.377V265.342C236.228 265.36 235.439 265.172 234.734 264.797L231.642 263.011L160.601 221.982C160.343 221.86 160.122 221.671 159.961 221.434C159.801 221.197 159.706 220.922 159.688 220.636Z" fill="white"/>
<path d="M210.491 190.544C210.842 190.316 211.239 190.166 211.653 190.104C212.068 190.042 212.491 190.069 212.894 190.184L213.792 190.704C214.777 190.128 215.57 189.206 215.57 188.637V188.157C215.578 187.991 215.624 187.829 215.706 187.684C215.769 187.554 215.866 187.443 215.987 187.363L216.387 187.139L217.325 186.594C217.981 186.326 218.691 186.213 219.398 186.264C220.106 186.316 220.792 186.53 221.403 186.891L295.552 229.706L295.632 229.754L243.307 259.966C242.834 260.207 242.311 260.333 241.781 260.333C241.25 260.333 240.727 260.207 240.254 259.966L165.625 216.454L210.491 190.544Z" fill="#263238"/>
<path d="M247.497 255.576L245.518 254.438C246.051 254.253 246.623 254.211 247.177 254.318C247.705 254.59 247.497 255.576 247.497 255.576Z" fill="#BA68C8"/>
<path opacity="0.7" d="M247.497 255.576L245.518 254.438C246.051 254.253 246.623 254.211 247.177 254.318C247.705 254.59 247.497 255.576 247.497 255.576Z" fill="black"/>
<path d="M248.859 254.35C248.634 254.106 248.361 253.911 248.057 253.778C247.753 253.645 247.424 253.576 247.092 253.576C246.761 253.576 246.432 253.645 246.128 253.778C245.824 253.911 245.551 254.106 245.326 254.35C243.395 256.121 243.299 257.875 242.498 257.851C241.697 257.827 241.697 243.71 241.697 243.71L249.316 250.769L248.859 254.35Z" fill="#BA68C8"/>
<path opacity="0.7" d="M248.859 254.35C248.634 254.106 248.361 253.911 248.057 253.778C247.753 253.645 247.424 253.576 247.092 253.576C246.761 253.576 246.432 253.645 246.128 253.778C245.824 253.911 245.551 254.106 245.326 254.35C243.395 256.121 243.299 257.875 242.498 257.851C241.697 257.827 241.697 243.71 241.697 243.71L249.316 250.769L248.859 254.35Z" fill="black"/>
<path d="M169.206 203.035L169.078 202.962L170.296 202.257L222.757 171.973L299.197 221.438C300.455 222.167 300.679 223.224 299.694 223.785L297.907 224.819L248.875 253.172L248.523 252.916L169.206 203.035Z" fill="#BA68C8"/>
<path opacity="0.5" d="M169.206 203.035L169.078 202.962L170.296 202.257L222.757 171.973L299.197 221.438C300.455 222.167 300.679 223.224 299.694 223.785L297.907 224.819L248.875 253.172L248.523 252.916L169.206 203.035Z" fill="black"/>
<path d="M242.33 237.029L246.127 236.227V251.45C243.836 252.427 242.378 253.341 242.121 255.255L242.33 237.029Z" fill="#455A64"/>
<path d="M247.802 251.65L296.377 223.609C296.822 223.32 297.193 222.929 297.459 222.47C297.724 222.011 297.878 221.495 297.907 220.965V205.975L248.859 234.537C248.859 234.537 248.274 236.66 246.536 237.325C244.797 237.99 246.127 238.671 246.127 238.671V251.49C247.625 251.273 247.802 251.65 247.802 251.65Z" fill="#F0F0F0"/>
<path d="M243.323 236.508C243.828 236.219 244.228 236.203 244.228 236.508V236.98C244.228 237.509 245.029 237.485 246.023 236.908C247.016 236.331 247.818 235.45 247.818 234.921V234.441C247.818 234.168 248.499 233.559 249.332 233.079L170.304 187.796L169.078 188.501C168.908 188.682 168.801 188.912 168.773 189.158V189.639C168.773 190.168 167.972 191.057 166.987 191.626C166.001 192.195 165.192 192.227 165.192 191.698V191.217C165.192 190.945 164.792 190.969 164.295 191.257L243.323 236.508Z" fill="#BA68C8"/>
<path opacity="0.6" d="M243.323 236.508C243.828 236.219 244.228 236.203 244.228 236.508V236.98C244.228 237.509 245.029 237.485 246.023 236.908C247.016 236.331 247.818 235.45 247.818 234.921V234.441C247.818 234.168 248.499 233.559 249.332 233.079L170.304 187.796L169.078 188.501C168.908 188.682 168.801 188.912 168.773 189.158V189.639C168.773 190.168 167.972 191.057 166.987 191.626C166.001 192.195 165.192 192.227 165.192 191.698V191.217C165.192 190.945 164.792 190.969 164.295 191.257L243.323 236.508Z" fill="black"/>
<path d="M169.206 188.541L169.078 188.469L170.296 187.764L222.757 157.48L299.197 201.624C300.455 202.354 300.679 203.403 299.694 203.972L297.907 204.997L248.859 234.537L169.206 188.541Z" fill="#BA68C8"/>
<path opacity="0.5" d="M169.206 188.541L169.078 188.469L170.296 187.764L222.757 157.48L299.197 201.624C300.455 202.354 300.679 203.403 299.694 203.972L297.907 204.997L248.859 234.537L169.206 188.541Z" fill="black"/>
<path d="M165.176 190.728L244.188 236.347L241.424 238.511L162.708 193.068C162.9 192.483 163.267 191.972 163.758 191.602L165.176 190.728Z" fill="#BA68C8"/>
<path opacity="0.5" d="M165.176 190.728L244.188 236.347L241.424 238.511L162.708 193.068C162.9 192.483 163.267 191.972 163.758 191.602L165.176 190.728Z" fill="black"/>
<path d="M162.973 213.458C162.924 213.428 162.879 213.393 162.837 213.354C162.8 213.336 162.77 213.308 162.749 213.274C162.684 213.211 162.63 213.138 162.588 213.057C162.553 213.027 162.525 212.988 162.508 212.945C162.422 212.808 162.355 212.66 162.308 212.505C162.241 212.338 162.188 212.167 162.148 211.992C162.1 211.799 162.068 211.607 162.035 211.399C162.008 211.281 161.992 211.16 161.987 211.038V210.742C161.987 210.526 161.987 210.293 161.987 210.061V197.01C161.973 195.639 162.223 194.279 162.724 193.004L241.44 238.447L241.769 258.893L163.061 213.434L162.973 213.458Z" fill="#BA68C8"/>
<path opacity="0.7" d="M162.973 213.458C162.924 213.428 162.879 213.393 162.837 213.354C162.8 213.336 162.77 213.308 162.749 213.274C162.684 213.211 162.63 213.138 162.588 213.057C162.553 213.027 162.525 212.988 162.508 212.945C162.422 212.808 162.355 212.66 162.308 212.505C162.241 212.338 162.188 212.167 162.148 211.992C162.1 211.799 162.068 211.607 162.035 211.399C162.008 211.281 161.992 211.16 161.987 211.038V210.742C161.987 210.526 161.987 210.293 161.987 210.061V197.01C161.973 195.639 162.223 194.279 162.724 193.004L241.44 238.447L241.769 258.893L163.061 213.434L162.973 213.458Z" fill="black"/>
<path opacity="0.79" d="M241.384 238.479C241.384 238.479 179.389 209.468 173.749 206.808C170.023 205.054 168.196 208.739 169.078 212.553C169.879 215.885 173.14 219.323 173.14 219.323L163.005 213.466C162.956 213.436 162.911 213.401 162.869 213.362C162.832 213.344 162.802 213.316 162.781 213.282C162.716 213.219 162.662 213.146 162.62 213.065C162.585 213.035 162.557 212.996 162.54 212.953C162.454 212.816 162.387 212.668 162.34 212.513C162.273 212.346 162.22 212.175 162.18 212C162.132 211.807 162.1 211.615 162.067 211.407C162.04 211.289 162.024 211.168 162.019 211.046V210.75C162.019 210.534 162.019 210.301 162.019 210.069V197.01C162.005 195.639 162.255 194.279 162.756 193.004L241.384 238.479Z" fill="#263238"/>
<path d="M240.655 242.46H242.418C242.376 241.128 242.668 239.806 243.267 238.615C243.686 238.926 244.195 239.092 244.717 239.088C245.493 239.048 246.246 238.811 246.904 238.399C247.697 237.948 248.389 237.34 248.939 236.612C248.981 236.562 249.019 236.508 249.051 236.452C249.362 236.008 249.543 235.486 249.572 234.945L296.096 208.09L297.699 207.169L299.718 206.007C299.893 205.927 300.044 205.8 300.153 205.64C300.261 205.481 300.324 205.294 300.335 205.102V203.043C300.326 203.239 300.264 203.429 300.155 203.593C300.047 203.757 299.895 203.888 299.718 203.972L294.374 207.048L249.388 233.031C248.547 233.511 247.866 234.12 247.866 234.393V234.873C247.815 235.178 247.67 235.459 247.449 235.675C247.063 236.139 246.596 236.53 246.071 236.828C245.077 237.405 244.276 237.429 244.276 236.9V236.428C244.276 236.147 243.884 236.171 243.379 236.428L242.49 236.948C241.456 237.589 240.655 240.033 240.655 242.46Z" fill="#BA68C8"/>
<path d="M242.418 242.46V255.512C242.418 255.696 242.418 255.88 242.418 256.056L242.458 256.497C242.454 256.51 242.454 256.524 242.458 256.537C242.618 255.135 243.956 253.885 245.118 253.228C245.765 252.82 246.508 252.588 247.273 252.555C247.86 252.548 248.43 252.756 248.875 253.14L249.027 253.052L249.34 252.868L294.326 226.886L296.914 225.395L297.651 224.963L299.83 223.705C299.973 223.615 300.092 223.491 300.176 223.345C300.26 223.198 300.306 223.033 300.311 222.864V224.923C300.304 225.082 300.261 225.238 300.183 225.377C300.105 225.516 299.995 225.635 299.862 225.724C299.606 225.876 299.333 226.02 299.061 226.189L298.556 226.485L297.691 226.982C297.498 227.102 297.322 227.206 297.154 227.294C296.986 227.382 296.89 227.454 296.777 227.51L296.112 227.903L260.372 248.525L248.963 255.111C248.162 255.592 247.497 255.76 247.449 255.512C247.446 255.482 247.446 255.453 247.449 255.423V254.967C247.449 254.39 246.648 254.39 245.662 254.967C245.297 255.126 244.977 255.373 244.731 255.686C244.485 255.999 244.32 256.369 244.252 256.761V257.322C244.264 257.447 244.246 257.573 244.2 257.69C244.154 257.807 244.082 257.912 243.988 257.995L243.723 258.147L243.163 258.468L242.466 258.877C242.33 258.966 242.169 259.008 242.007 258.993C241.845 258.978 241.693 258.909 241.576 258.796C241.54 258.778 241.509 258.751 241.488 258.716C241.424 258.656 241.37 258.586 241.328 258.508C241.297 258.474 241.27 258.436 241.248 258.396C241.162 258.258 241.095 258.11 241.048 257.955C240.98 257.792 240.926 257.623 240.887 257.45C240.839 257.25 240.807 257.058 240.775 256.85C240.747 256.731 240.731 256.611 240.727 256.489C240.727 256.393 240.727 256.305 240.727 256.193C240.727 256.08 240.727 255.744 240.727 255.512V242.46H242.418Z" fill="#BA68C8"/>
<g opacity="0.6">
<path d="M240.655 242.46H242.418C242.376 241.128 242.668 239.806 243.267 238.615C243.686 238.926 244.195 239.092 244.717 239.088C245.493 239.048 246.246 238.811 246.904 238.399C247.697 237.948 248.389 237.34 248.939 236.612C248.981 236.562 249.019 236.508 249.051 236.452C249.362 236.008 249.543 235.486 249.572 234.945L296.096 208.09L297.699 207.169L299.718 206.007C299.893 205.927 300.044 205.8 300.153 205.64C300.261 205.481 300.324 205.294 300.335 205.102V203.043C300.326 203.239 300.264 203.429 300.155 203.593C300.047 203.757 299.895 203.888 299.718 203.972L294.374 207.048L249.388 233.031C248.547 233.511 247.866 234.12 247.866 234.393V234.873C247.815 235.178 247.67 235.459 247.449 235.675C247.063 236.139 246.596 236.53 246.071 236.828C245.077 237.405 244.276 237.429 244.276 236.9V236.428C244.276 236.147 243.884 236.171 243.379 236.428L242.49 236.948C241.456 237.589 240.655 240.033 240.655 242.46Z" fill="black"/>
<path d="M242.418 242.46V255.512C242.418 255.696 242.418 255.88 242.418 256.056L242.458 256.497C242.454 256.51 242.454 256.524 242.458 256.537C242.618 255.135 243.956 253.885 245.118 253.228C245.765 252.82 246.508 252.588 247.273 252.555C247.86 252.548 248.43 252.756 248.875 253.14L249.027 253.052L249.34 252.868L294.326 226.886L296.914 225.395L297.651 224.963L299.83 223.705C299.973 223.615 300.092 223.491 300.176 223.345C300.26 223.198 300.306 223.033 300.311 222.864V224.923C300.304 225.082 300.261 225.238 300.183 225.377C300.105 225.516 299.995 225.635 299.862 225.724C299.606 225.876 299.333 226.02 299.061 226.189L298.556 226.485L297.691 226.982C297.498 227.102 297.322 227.206 297.154 227.294C296.986 227.382 296.89 227.454 296.777 227.51L296.112 227.903L260.372 248.525L248.963 255.111C248.162 255.592 247.497 255.76 247.449 255.512C247.446 255.482 247.446 255.453 247.449 255.423V254.967C247.449 254.39 246.648 254.39 245.662 254.967C245.297 255.126 244.977 255.373 244.731 255.686C244.485 255.999 244.32 256.369 244.252 256.761V257.322C244.264 257.447 244.246 257.573 244.2 257.69C244.154 257.807 244.082 257.912 243.988 257.995L243.723 258.147L243.163 258.468L242.466 258.877C242.33 258.966 242.169 259.008 242.007 258.993C241.845 258.978 241.693 258.909 241.576 258.796C241.54 258.778 241.509 258.751 241.488 258.716C241.424 258.656 241.37 258.586 241.328 258.508C241.297 258.474 241.27 258.436 241.248 258.396C241.162 258.258 241.095 258.11 241.048 257.955C240.98 257.792 240.926 257.623 240.887 257.45C240.839 257.25 240.807 257.058 240.775 256.85C240.747 256.731 240.731 256.611 240.727 256.489C240.727 256.393 240.727 256.305 240.727 256.193C240.727 256.08 240.727 255.744 240.727 255.512V242.46H242.418Z" fill="black"/>
</g>
<path d="M162.668 193.028L237.482 236.227L294.029 203.579C294.214 203.518 294.375 203.399 294.489 203.241C294.603 203.083 294.664 202.893 294.664 202.698C294.664 202.503 294.603 202.313 294.489 202.155C294.375 201.997 294.214 201.879 294.029 201.817L220.001 159.066L170.328 187.764L169.102 188.477C168.936 188.656 168.832 188.884 168.805 189.126V189.607C168.805 190.136 168.004 191.025 167.019 191.594C166.969 191.627 166.915 191.654 166.859 191.674L165.208 190.72L164.407 191.169L164.295 191.225L163.718 191.562C163.227 191.933 162.861 192.444 162.668 193.028Z" fill="#263238"/>
<path d="M289.855 203.9L287.604 202.698L289.655 202.209C289.852 202.44 289.976 202.723 290.012 203.024C290.048 203.325 289.993 203.63 289.855 203.9Z" fill="#E0E0E0"/>
<g style="mix-blend-mode:multiply" opacity="0.5">
<path d="M289.855 203.9L287.604 202.698L289.655 202.209C289.852 202.44 289.976 202.723 290.012 203.024C290.048 203.325 289.993 203.63 289.855 203.9Z" fill="#E0E0E0"/>
</g>
<path d="M230.192 233.944C230.9 234.304 231.684 234.491 232.479 234.491C233.274 234.491 234.057 234.304 234.766 233.944L286.154 204.3L209.241 155.677L207.438 154.635L156.059 188.477C154.801 189.206 154.801 190.392 156.059 191.121L230.192 233.944Z" fill="#BA68C8"/>
<path d="M249.484 173.671L288.309 199.982L267.406 183.958L279.007 177.261L292.499 185.072V199.005C292.499 200.19 291.177 201.865 290.697 201.592C289.807 201.807 288.943 202.113 288.117 202.506C286.769 203.272 285.518 204.197 284.391 205.262L243.219 177.277L249.484 173.671Z" fill="#BA68C8"/>
<path opacity="0.2" d="M249.484 173.671L288.309 199.982L267.406 183.958L279.007 177.261L292.499 185.072V199.005C292.499 200.19 291.177 201.865 290.697 201.592C289.807 201.807 288.943 202.113 288.117 202.506C286.769 203.272 285.518 204.197 284.391 205.262L243.219 177.277L249.484 173.671Z" fill="black"/>
<path d="M232.475 216.55V232.638C233.007 232.65 233.534 232.526 234.005 232.278L239.613 229.025L282.556 204.236V187.62L232.475 216.55Z" fill="white"/>
<path d="M157.333 174.657V188.012C157.362 188.542 157.515 189.056 157.779 189.515C158.044 189.975 158.412 190.365 158.855 190.656L225.352 229.033L230.961 232.286C231.429 232.533 231.953 232.657 232.483 232.646V217.808L157.333 174.657Z" fill="#F0F0F0"/>
<path d="M282.581 204.236C282.62 203.629 282.844 203.047 283.222 202.57C283.769 201.84 284.462 201.232 285.257 200.783C285.918 200.371 286.673 200.134 287.452 200.094C287.957 200.043 288.464 200.161 288.894 200.431V183.974L282.589 187.62L282.581 204.236Z" fill="#455A64"/>
<path d="M285.096 200.879C284.37 201.319 283.734 201.892 283.222 202.57C282.844 203.047 282.62 203.629 282.581 204.236V188.213H285.088L285.096 200.879Z" fill="#F5F5F5"/>
<path d="M209.233 141.136L286.146 185.561V186.586C286.146 187.163 286.947 187.388 287.932 186.803C288.918 186.218 289.735 185.513 289.735 184.527L289.831 183.55L211.452 138.299L211.132 138.115C211.051 138.263 211.007 138.428 211.003 138.596V139.069C211.011 139.637 210.218 140.559 209.233 141.136Z" fill="#BA68C8"/>
<path opacity="0.2" d="M209.233 141.136L286.146 185.561V186.586C286.146 187.163 286.947 187.388 287.932 186.803C288.918 186.218 289.735 185.513 289.735 184.527L289.831 183.55L211.452 138.299L211.132 138.115C211.051 138.263 211.007 138.428 211.003 138.596V139.069C211.011 139.637 210.218 140.559 209.233 141.136Z" fill="black"/>
<path d="M234.766 215.228L285.048 186.218C285.689 185.881 286.274 185.609 286.514 185.737L286.186 185.561L209.273 141.136L208.367 140.623C207.965 140.503 207.541 140.474 207.126 140.536C206.71 140.598 206.314 140.751 205.964 140.983L156.059 169.77C154.801 170.499 154.801 171.692 156.059 172.414L230.208 215.228C230.914 215.585 231.695 215.771 232.487 215.771C233.279 215.771 234.06 215.585 234.766 215.228Z" fill="#BA68C8"/>
<path d="M211.14 138.115L211.46 138.299L289.855 183.55C289.895 183.466 289.952 183.393 290.023 183.334L290.288 183.189L290.849 182.861L291.546 182.452C291.681 182.364 291.843 182.324 292.004 182.338C292.166 182.353 292.317 182.421 292.435 182.532C292.468 182.555 292.498 182.582 292.523 182.613C292.616 182.712 292.697 182.823 292.763 182.941C292.846 183.08 292.913 183.228 292.964 183.382C293.027 183.55 293.08 183.721 293.124 183.894C293.164 184.087 293.204 184.279 293.236 184.487C293.261 184.609 293.277 184.732 293.284 184.856V185.144C293.284 185.361 293.284 185.593 293.284 185.833V183.63C293.204 182.904 292.955 182.208 292.557 181.596C292.159 180.984 291.623 180.473 290.993 180.105L216.844 137.29C216.233 136.93 215.546 136.717 214.839 136.667C214.131 136.617 213.422 136.731 212.766 137.002L211.829 137.546L211.436 137.779C211.307 137.86 211.204 137.977 211.14 138.115Z" fill="#BA68C8"/>
<path d="M234.766 233.944L237.867 232.149L284.391 205.286C284.432 204.678 284.656 204.098 285.032 203.619C285.582 202.892 286.275 202.284 287.067 201.833C287.728 201.427 288.48 201.192 289.254 201.152C289.777 201.141 290.288 201.308 290.705 201.624C291.302 200.43 291.594 199.106 291.554 197.771H293.316C293.316 200.174 292.515 202.642 291.53 203.211L290.64 203.732C290.136 204.02 289.743 204.036 289.743 203.732V203.259C289.743 202.73 288.942 202.754 287.941 203.323C286.939 203.892 286.154 204.789 286.154 205.318V205.791C286.154 206.063 285.473 206.672 284.632 207.161L239.638 233.143L234.766 235.955C234.061 236.32 233.277 236.504 232.483 236.492V234.457C233.275 234.484 234.062 234.307 234.766 233.944Z" fill="#BA68C8"/>
<path opacity="0.4" d="M234.766 233.944L237.867 232.149L284.391 205.286C284.432 204.678 284.656 204.098 285.032 203.619C285.582 202.892 286.275 202.284 287.067 201.833C287.728 201.427 288.48 201.192 289.254 201.152C289.777 201.141 290.288 201.308 290.705 201.624C291.302 200.43 291.594 199.106 291.554 197.771H293.316C293.316 200.174 292.515 202.642 291.53 203.211L290.64 203.732C290.136 204.02 289.743 204.036 289.743 203.732V203.259C289.743 202.73 288.942 202.754 287.941 203.323C286.939 203.892 286.154 204.789 286.154 205.318V205.791C286.154 206.063 285.473 206.672 284.632 207.161L239.638 233.143L234.766 235.955C234.061 236.32 233.277 236.504 232.483 236.492V234.457C233.275 234.484 234.062 234.307 234.766 233.944Z" fill="black"/>
<path d="M234.75 215.236L237.851 213.442L273.592 192.82L285.048 186.218C285.85 185.745 286.522 185.577 286.571 185.825V186.346C286.571 186.915 287.372 186.915 288.357 186.346C288.724 186.186 289.044 185.938 289.291 185.623C289.537 185.309 289.701 184.937 289.767 184.543V183.983C289.756 183.858 289.773 183.731 289.819 183.615C289.865 183.498 289.938 183.393 290.032 183.31L290.296 183.165L290.857 182.837L291.554 182.428C291.69 182.34 291.851 182.3 292.012 182.314C292.174 182.329 292.326 182.397 292.443 182.508C292.476 182.531 292.506 182.558 292.531 182.589C292.594 182.654 292.647 182.726 292.692 182.805C292.722 182.839 292.749 182.877 292.772 182.917C292.854 183.056 292.921 183.204 292.972 183.358C293.035 183.525 293.088 183.697 293.132 183.87C293.172 184.063 293.212 184.255 293.244 184.463C293.269 184.585 293.285 184.708 293.292 184.832V185.12C293.292 185.337 293.292 185.569 293.292 185.809V197.731H291.53V185.873C291.53 185.689 291.53 185.497 291.53 185.321L291.49 184.88C291.33 186.282 289.992 187.532 288.822 188.189C288.178 188.598 287.437 188.83 286.675 188.862C286.087 188.869 285.517 188.661 285.072 188.277L284.92 188.365L284.608 188.549L239.614 214.531L234.742 217.344C234.046 217.699 233.273 217.878 232.491 217.864V215.829C233.282 215.824 234.059 215.62 234.75 215.236Z" fill="#BA68C8"/>
<path opacity="0.4" d="M234.75 215.236L237.851 213.442L273.592 192.82L285.048 186.218C285.85 185.745 286.522 185.577 286.571 185.825V186.346C286.571 186.915 287.372 186.915 288.357 186.346C288.724 186.186 289.044 185.938 289.291 185.623C289.537 185.309 289.701 184.937 289.767 184.543V183.983C289.756 183.858 289.773 183.731 289.819 183.615C289.865 183.498 289.938 183.393 290.032 183.31L290.296 183.165L290.857 182.837L291.554 182.428C291.69 182.34 291.851 182.3 292.012 182.314C292.174 182.329 292.326 182.397 292.443 182.508C292.476 182.531 292.506 182.558 292.531 182.589C292.594 182.654 292.647 182.726 292.692 182.805C292.722 182.839 292.749 182.877 292.772 182.917C292.854 183.056 292.921 183.204 292.972 183.358C293.035 183.525 293.088 183.697 293.132 183.87C293.172 184.063 293.212 184.255 293.244 184.463C293.269 184.585 293.285 184.708 293.292 184.832V185.12C293.292 185.337 293.292 185.569 293.292 185.809V197.731H291.53V185.873C291.53 185.689 291.53 185.497 291.53 185.321L291.49 184.88C291.33 186.282 289.992 187.532 288.822 188.189C288.178 188.598 287.437 188.83 286.675 188.862C286.087 188.869 285.517 188.661 285.072 188.277L284.92 188.365L284.608 188.549L239.614 214.531L234.742 217.344C234.046 217.699 233.273 217.878 232.491 217.864V215.829C233.282 215.824 234.059 215.62 234.75 215.236Z" fill="black"/>
<path d="M155.105 171.068V173.135C155.13 173.412 155.226 173.679 155.385 173.908C155.543 174.137 155.759 174.32 156.011 174.44L225.296 214.435L230.16 217.247C230.862 217.611 231.644 217.795 232.435 217.784V215.749C231.64 215.767 230.853 215.579 230.152 215.204L227.059 213.418L156.059 172.413C155.789 172.301 155.557 172.115 155.389 171.877C155.22 171.639 155.122 171.359 155.105 171.068Z" fill="#BA68C8"/>
<path opacity="0.2" d="M155.105 171.068V173.135C155.13 173.412 155.226 173.679 155.385 173.908C155.543 174.137 155.759 174.32 156.011 174.44L225.296 214.435L230.16 217.247C230.862 217.611 231.644 217.795 232.435 217.784V215.749C231.64 215.767 230.853 215.579 230.152 215.204L227.059 213.418L156.059 172.413C155.789 172.301 155.557 172.115 155.389 171.877C155.22 171.639 155.122 171.359 155.105 171.068Z" fill="black"/>
<path d="M155.105 189.767V191.834C155.13 192.112 155.226 192.378 155.385 192.607C155.543 192.836 155.759 193.02 156.011 193.14L225.328 233.143L230.192 235.955C230.894 236.318 231.676 236.503 232.467 236.492V234.457C231.672 234.474 230.885 234.287 230.184 233.912L227.091 232.125L156.059 191.113C155.789 191.001 155.557 190.815 155.389 190.577C155.22 190.339 155.122 190.058 155.105 189.767Z" fill="#BA68C8"/>
<path opacity="0.2" d="M155.105 189.767V191.834C155.13 192.112 155.226 192.378 155.385 192.607C155.543 192.836 155.759 193.02 156.011 193.14L225.328 233.143L230.192 235.955C230.894 236.318 231.676 236.503 232.467 236.492V234.457C231.672 234.474 230.885 234.287 230.184 233.912L227.091 232.125L156.059 191.113C155.789 191.001 155.557 190.815 155.389 190.577C155.22 190.339 155.122 190.058 155.105 189.767Z" fill="black"/>
<path d="M187.104 117.076L179.75 130.183L190.469 135.888L198.273 124.271L187.104 117.076Z" fill="#FFA8A7"/>
<path d="M213.199 87.5528C209.113 86.8558 202.928 86.6715 198.906 93.5697C194.884 100.468 186.215 117.493 186.215 117.493C186.215 117.493 191.278 124.046 198.609 125.24L210.587 106.236L213.199 87.5528Z" fill="#BA68C8"/>
<path d="M203.544 248.077H194.395V263.74H203.544V248.077Z" fill="#FFA8A7"/>
<path d="M177.058 244.263L167.908 244.576L167.451 227.999L176.593 227.687L177.058 244.263Z" fill="#FFA8A7"/>
<path d="M194.395 259.221V257.915C193.522 258.292 191.487 266.055 187.858 269.364C184.973 272 181.039 275.036 180.038 277.969C178.996 281.021 185.518 282.712 188.21 282.231C191.343 281.678 196.775 279.475 198.137 277.424C199.499 275.373 200.14 272.368 201.245 270.87C202.351 269.372 204.907 267.665 205.507 265.959C205.836 265.006 205.443 262.922 204.987 261.152C204.562 259.55 204.097 257.755 203.545 257.907V258.901C202.88 259.638 201.045 260.367 198.97 260.447C197.632 260.511 194.387 260.247 194.395 259.221Z" fill="#263238"/>
<path d="M167.812 241.755C167.339 241.755 166.955 242.444 165.905 243.574C164.339 245.156 162.519 246.464 160.521 247.444C157.092 249.166 150.45 251.802 147.422 253.172C145.539 254.021 145.627 256.297 147.574 257.595C149.521 258.893 154.216 259.822 159.864 258.556C162.933 257.867 166.939 255.031 169.478 255.183C172.018 255.335 176.753 255.303 178.62 254.013C180.486 252.724 179.741 250.008 179.213 247.604C178.636 245.024 177.81 241.074 176.953 241.251V242.052C175.856 243.718 170.255 244.399 167.836 243.174L167.812 241.755Z" fill="#263238"/>
<path d="M240.399 152.825C242.402 166.966 239.702 169.649 226.266 183.221C219.055 190.504 207.398 201.184 207.398 201.184C207.398 201.184 207.566 205.702 207.654 215.829C207.743 224.746 204.017 253.765 204.017 253.765C204.017 253.765 197.944 256.321 193.778 253.669C193.778 253.669 191.895 232.077 190.878 220.821C189.5 205.598 188.779 197.923 189.556 194.646C190.245 191.754 203.921 174.481 207.078 169.641L178.011 186.53C178.574 190.81 178.858 195.121 178.86 199.437C178.54 211.543 177.049 235.723 177.049 235.723C177.049 235.723 170.4 238.695 167.099 236.131C167.099 236.131 158.727 183.253 158.727 178.911C158.727 172.317 187.361 152.632 192.785 148.05C195.877 145.438 199.322 142.61 199.322 142.61L240.399 152.825Z" fill="#455A64"/>
<path d="M207.078 169.649C204.02 167.174 201.719 163.89 200.436 160.172C200.596 162.598 200.941 165.008 201.469 167.382C202.271 170.523 178.011 186.53 178.011 186.53L207.078 169.649Z" fill="#37474F"/>
<path d="M223.232 62.2635C224.869 55.2801 220.535 48.2922 213.551 46.6556C206.568 45.0189 199.58 49.3533 197.943 56.3366C196.307 63.32 200.641 70.3079 207.624 71.9445C214.608 73.5812 221.596 69.2468 223.232 62.2635Z" fill="#263238"/>
<path d="M237.875 95.4203C237.875 95.4203 241.079 98.0482 241.079 106.348V124.271L240.623 154.411C234.213 161.389 205.371 158.745 198.233 143.523C198.233 143.523 198.289 111.708 198.289 104.578C198.289 97.4473 202.294 88.1937 213.191 87.5528L227.307 90.8376L237.875 95.4203Z" fill="#263238"/>
<path d="M233.036 68.5329C233.036 68.5329 230.929 78.4194 230.087 80.0458C229.526 81.0484 228.599 81.7949 227.5 82.1288L227.644 75.1746L233.036 68.5329Z" fill="#263238"/>
<path d="M230.392 54.3681C231.123 54.2859 231.864 54.3708 232.558 54.6165C233.252 54.8621 233.881 55.2621 234.398 55.7862C236.128 57.5568 235.159 63.1009 233.004 68.5329L229.038 68.9896L230.392 54.3681Z" fill="#263238"/>
<path d="M227.884 68.9896C228.685 69.4623 229.815 67.9401 230.793 66.9145C231.77 65.889 234.975 64.511 236.569 67.8519C238.163 71.1928 235.159 75.8076 232.643 76.6008C228.301 77.9628 227.644 75.1747 227.644 75.1747L227.315 90.8377C223.574 95.0199 210.779 94.0424 213.191 90.4211V85.614C213.191 85.614 209.257 86.2149 207.342 85.9185C204.137 85.4218 202.134 82.9061 201.165 79.445C199.611 73.8928 199.018 69.4142 200.364 58.4942C201.814 46.5246 215.73 46.4044 223.245 51.1313C230.76 55.8583 227.884 68.9896 227.884 68.9896Z" fill="#FFA8A7"/>
<path d="M216.82 71.7296H216.147C214.972 71.7296 213.845 71.2628 213.014 70.4319C212.183 69.601 211.716 68.4741 211.716 67.299C211.716 66.124 212.183 64.9971 213.014 64.1662C213.845 63.3353 214.972 62.8685 216.147 62.8685H216.828C218.003 62.8685 219.13 63.3353 219.961 64.1662C220.792 64.9971 221.258 66.124 221.258 67.299C221.258 68.4741 220.792 69.601 219.961 70.4319C219.13 71.2628 218.003 71.7296 216.828 71.7296H216.82ZM216.147 63.6136C215.17 63.6136 214.232 64.0019 213.541 64.6931C212.85 65.3842 212.462 66.3216 212.462 67.299C212.462 68.2765 212.85 69.2139 213.541 69.905C214.232 70.5962 215.17 70.9845 216.147 70.9845H216.828C217.805 70.9845 218.743 70.5962 219.434 69.905C220.125 69.2139 220.513 68.2765 220.513 67.299C220.513 66.3216 220.125 65.3842 219.434 64.6931C218.743 64.0019 217.805 63.6136 216.828 63.6136H216.147Z" fill="#263238"/>
<path d="M203.328 71.7296H202.647C201.472 71.7296 200.345 71.2628 199.514 70.4319C198.683 69.601 198.217 68.4741 198.217 67.299C198.217 66.124 198.683 64.9971 199.514 64.1662C200.345 63.3353 201.472 62.8685 202.647 62.8685H203.328C204.503 62.8685 205.63 63.3353 206.461 64.1662C207.292 64.9971 207.759 66.124 207.759 67.299C207.759 68.4741 207.292 69.601 206.461 70.4319C205.63 71.2628 204.503 71.7296 203.328 71.7296ZM202.647 63.6136C201.67 63.6136 200.732 64.0019 200.041 64.6931C199.35 65.3842 198.962 66.3216 198.962 67.299C198.962 68.2765 199.35 69.2139 200.041 69.905C200.732 70.5962 201.67 70.9845 202.647 70.9845H203.328C204.306 70.9845 205.243 70.5962 205.934 69.905C206.625 69.2139 207.013 68.2765 207.013 67.299C207.013 66.3216 206.625 65.3842 205.934 64.6931C205.243 64.0019 204.306 63.6136 203.328 63.6136H202.647Z" fill="#263238"/>
<path d="M211.764 66.4258C211.494 66.0586 211.142 65.7596 210.736 65.5523C210.33 65.3451 209.881 65.2354 209.425 65.232C209.045 65.1938 208.662 65.2465 208.307 65.3858C207.952 65.5252 207.635 65.7471 207.382 66.0332L206.789 65.5845C207.114 65.201 207.527 64.9031 207.994 64.7173C208.461 64.5315 208.966 64.4634 209.465 64.519C210.043 64.5247 210.611 64.6679 211.122 64.9368C211.633 65.2057 212.073 65.5925 212.405 66.0652L211.764 66.4258Z" fill="#263238"/>
<path d="M230.264 66.3937H220.842V67.1388H230.264V66.3937Z" fill="#263238"/>
<path d="M227.884 70.3275C228.285 70.3275 229.799 67.8118 230.793 66.9145C232.163 65.6647 230.392 54.3681 230.392 54.3681C230.392 54.3681 231.714 51.5559 229.07 48.6557C227.195 46.5886 224.055 46.3563 218.695 45.515C215.883 45.0744 211.62 44.2812 208.808 43.7605C205.459 43.1355 202.679 42.4786 200.316 44.5616C199.388 45.3659 198.732 46.4377 198.438 47.6298C198.144 48.822 198.226 50.0759 198.673 51.2194C199.352 52.6456 200.559 53.7518 202.038 54.304C202.038 54.304 203.496 55.6019 208.584 56.2188C213.671 56.8357 221.595 56.1066 222.677 55.9544C224.151 55.7541 224.463 57.1802 225.264 61.0899C225.961 64.4949 226.562 70.3035 227.884 70.3275Z" fill="#263238"/>
<path d="M230.384 55.2814L235.191 52.6936C235.037 52.3705 234.819 52.0818 234.551 51.8451C234.282 51.6084 233.969 51.4285 233.629 51.3162C233.289 51.2039 232.93 51.1616 232.573 51.1918C232.217 51.2219 231.87 51.324 231.554 51.4918C230.911 51.8541 230.432 52.4488 230.214 53.1537C229.996 53.8585 230.057 54.62 230.384 55.2814Z" fill="#263238"/>
<path d="M213.199 85.654C213.199 85.654 220.329 84.2199 222.813 82.8979C224.278 82.1326 225.479 80.9432 226.258 79.4849C225.881 80.9376 225.216 82.2997 224.303 83.4908C222.476 85.8222 213.191 87.5367 213.191 87.5367L213.199 85.654Z" fill="#F28F8F"/>
<path d="M214.913 67.2109C214.924 67.4923 215.018 67.7641 215.182 67.9926C215.347 68.2211 215.575 68.3962 215.838 68.4959C216.101 68.5957 216.388 68.6157 216.663 68.5536C216.937 68.4914 217.188 68.3498 217.382 68.1464C217.577 67.943 217.707 67.6868 217.757 67.4097C217.807 67.1326 217.775 66.847 217.664 66.5883C217.552 66.3297 217.367 66.1095 217.132 65.9552C216.896 65.8009 216.621 65.7194 216.339 65.7208C216.148 65.7249 215.959 65.7668 215.784 65.8439C215.608 65.9211 215.45 66.032 215.317 66.1704C215.185 66.3088 215.081 66.4719 215.012 66.6504C214.942 66.829 214.909 67.0194 214.913 67.2109Z" fill="#263238"/>
<path d="M217.204 61.2982L220.265 62.9807C220.471 62.564 220.512 62.0847 220.38 61.639C220.248 61.1932 219.952 60.8139 219.552 60.5772C219.351 60.4663 219.131 60.3969 218.903 60.3732C218.675 60.3495 218.444 60.372 218.225 60.4393C218.006 60.5066 217.803 60.6173 217.627 60.7649C217.452 60.9125 217.308 61.0938 217.204 61.2982Z" fill="#263238"/>
<path d="M213.848 77.0734L210.587 78.2992C210.657 78.5181 210.771 78.7206 210.921 78.8945C211.071 79.0684 211.255 79.2101 211.462 79.3111C211.668 79.4121 211.893 79.4704 212.123 79.4823C212.353 79.4943 212.582 79.4598 212.798 79.3808C213.238 79.2067 213.592 78.8691 213.788 78.4388C213.984 78.0085 214.005 77.5191 213.848 77.0734Z" fill="#F28F8F"/>
<path d="M201.806 62.5481L204.594 60.4089C204.464 60.2222 204.298 60.0637 204.105 59.943C203.913 59.8224 203.697 59.742 203.473 59.7068C203.248 59.6716 203.019 59.6823 202.798 59.7383C202.578 59.7942 202.371 59.8943 202.19 60.0324C201.815 60.3218 201.566 60.7447 201.494 61.2132C201.423 61.6817 201.534 62.1598 201.806 62.5481Z" fill="#263238"/>
<path d="M203.032 66.8023C203.043 67.0836 203.136 67.3555 203.301 67.584C203.465 67.8125 203.693 67.9876 203.957 68.0873C204.22 68.1871 204.507 68.2071 204.781 68.1449C205.056 68.0828 205.306 67.9412 205.501 67.7378C205.695 67.5343 205.826 67.2781 205.876 67.0011C205.926 66.724 205.893 66.4384 205.782 66.1797C205.671 65.9211 205.486 65.7009 205.25 65.5466C205.015 65.3923 204.739 65.3108 204.458 65.3121C204.266 65.3163 204.077 65.3581 203.902 65.4353C203.727 65.5124 203.568 65.6234 203.436 65.7618C203.303 65.9001 203.2 66.0633 203.13 66.2418C203.061 66.4204 203.027 66.6108 203.032 66.8023Z" fill="#263238"/>
<path d="M210.09 65.6566L209.93 74.3174L204.81 73.1877L210.09 65.6566Z" fill="#F28F8F"/>
<path d="M201.341 137.658V138.46C201.341 138.869 201.232 139.272 201.027 139.626C200.822 139.98 200.527 140.275 200.171 140.479L177.923 153.297C177.568 153.502 177.166 153.61 176.757 153.61C176.348 153.61 175.946 153.502 175.591 153.297L134.771 129.735C134.416 129.531 134.121 129.237 133.916 128.882C133.71 128.528 133.602 128.126 133.602 127.716V127.147L176.753 152.056L201.341 137.658Z" fill="#BA68C8"/>
<path opacity="0.6" d="M201.341 137.658V138.46C201.341 138.869 201.232 139.272 201.027 139.626C200.822 139.98 200.527 140.275 200.171 140.479L177.923 153.297C177.568 153.502 177.166 153.61 176.757 153.61C176.348 153.61 175.946 153.502 175.591 153.297L134.771 129.735C134.416 129.531 134.121 129.237 133.916 128.882C133.71 128.528 133.602 128.126 133.602 127.716V127.147L176.753 152.056L201.341 137.658Z" fill="black"/>
<path d="M133.626 127.155L157.829 113.182C158.041 113.06 158.282 112.996 158.526 112.996C158.771 112.996 159.011 113.06 159.223 113.182L201.205 137.426C201.252 137.454 201.29 137.493 201.317 137.54C201.343 137.587 201.358 137.64 201.358 137.694C201.358 137.749 201.343 137.802 201.317 137.849C201.29 137.896 201.252 137.935 201.205 137.963L176.777 152.064L133.626 127.155Z" fill="#BA68C8"/>
<path opacity="0.5" d="M133.626 127.155L157.829 113.182C158.041 113.06 158.282 112.996 158.526 112.996C158.771 112.996 159.011 113.06 159.223 113.182L201.205 137.426C201.252 137.454 201.29 137.493 201.317 137.54C201.343 137.587 201.358 137.64 201.358 137.694C201.358 137.749 201.343 137.802 201.317 137.849C201.29 137.896 201.252 137.935 201.205 137.963L176.777 152.064L133.626 127.155Z" fill="black"/>
<path d="M176.977 150.013L190.029 142.482L151.86 120.449L138.737 127.94L176.977 150.013Z" fill="#263238"/>
<path d="M183.395 129.07L183.154 129.206L176.753 132.9L165.376 126.33L165.144 126.194L171.778 122.364L183.395 129.07Z" fill="#263238"/>
<path d="M183.154 129.206L176.753 132.899L165.376 126.33L171.778 122.636L183.154 129.206Z" fill="#263238"/>
<path opacity="0.7" d="M176.753 152.064V153.618C176.345 153.618 175.944 153.51 175.591 153.305L134.771 129.743C134.416 129.539 134.121 129.245 133.916 128.89C133.71 128.536 133.602 128.134 133.602 127.724V127.155L176.753 152.064Z" fill="black"/>
<path d="M176.088 152.408C175.7 152.563 175.281 152.626 174.865 152.594C174.448 152.563 174.044 152.436 173.684 152.224L133.049 128.765C132.696 128.563 132.392 128.285 132.159 127.951C131.927 127.617 131.771 127.236 131.703 126.835L127.256 100.3C127.231 100.151 127.218 100.001 127.216 99.8509C127.211 99.1137 127.499 98.4047 128.017 97.88L170.247 122.268C170.515 122.415 170.747 122.62 170.926 122.868C171.105 123.116 171.226 123.401 171.281 123.702L176.088 152.408Z" fill="#BA68C8"/>
<path opacity="0.5" d="M176.088 152.408C175.7 152.563 175.281 152.626 174.865 152.594C174.448 152.563 174.044 152.436 173.684 152.224L133.049 128.765C132.696 128.563 132.392 128.285 132.159 127.951C131.927 127.617 131.771 127.236 131.703 126.835L127.256 100.3C127.231 100.151 127.218 100.001 127.216 99.8509C127.211 99.1137 127.499 98.4047 128.017 97.88L170.247 122.268C170.515 122.415 170.747 122.62 170.926 122.868C171.105 123.116 171.226 123.401 171.281 123.702L176.088 152.408Z" fill="black"/>
<path d="M176.753 152.064L176.481 152.224C176.357 152.295 176.229 152.357 176.096 152.408L171.289 123.702C171.239 123.405 171.123 123.122 170.952 122.874C170.78 122.627 170.556 122.42 170.296 122.268L128.066 97.88C128.233 97.7148 128.422 97.572 128.626 97.4554L170.945 121.883C171.205 122.035 171.429 122.242 171.601 122.49C171.772 122.738 171.888 123.02 171.938 123.317L176.753 152.064Z" fill="#E0E0E0"/>
<path d="M153.207 127.916C152.91 126.146 151.075 123.782 149.113 122.652C147.15 121.523 145.796 122.036 146.1 123.814C146.405 125.593 148.231 127.948 150.194 129.086C152.157 130.224 153.511 129.695 153.207 127.916Z" fill="#BA68C8"/>
<path d="M161.531 145.189C161.446 144.04 161.223 142.905 160.866 141.809C160.241 139.846 158.382 132.283 154.136 131.145C153.631 130.993 153.095 130.977 152.582 131.097C151.404 131.417 150.867 132.643 150.635 133.741C150.418 135.363 150.418 137.006 150.635 138.628C149.982 137.881 149.217 137.241 148.367 136.729C147.614 136.162 146.706 135.838 145.764 135.8C145.633 135.793 145.502 135.819 145.383 135.875C145.264 135.931 145.161 136.015 145.083 136.12C144.93 136.401 145.083 136.753 145.323 137.001C145.748 137.514 146.268 137.947 146.693 138.46C147.026 138.907 147.333 139.372 147.614 139.854C148.151 140.719 148.752 141.536 149.353 142.361C150.507 144.076 151.956 145.573 153.631 146.784C155.558 148.088 157.745 148.96 160.041 149.34C163.141 149.724 166.154 149.676 168.108 148.995L161.531 145.189Z" fill="#FFA8A7"/>
<path d="M237.026 95.6527C234.165 94.1786 229.983 100.019 231.313 106.124C232.643 112.229 239.197 133.693 239.197 133.693C239.197 133.693 209.593 136.337 207.078 136.649C205.323 136.857 203.36 135.968 201.734 135.431C199.522 134.694 197.287 134.181 195.108 133.38C194.729 133.206 194.316 133.118 193.898 133.124C193.689 133.133 193.488 133.211 193.327 133.346C193.166 133.48 193.055 133.664 193.009 133.869C192.998 134.12 193.062 134.368 193.193 134.582C193.892 136.008 194.943 137.232 196.246 138.139C196.877 138.512 197.477 138.935 198.04 139.405C198.385 139.75 199.146 140.703 198.841 141.224L187.08 147.994C187.08 147.994 189.788 150.349 199.595 147.601C203.13 146.676 206.579 145.451 209.906 143.94C209.906 143.94 244.789 145.39 251.094 143.483C253.322 142.802 254.123 141.224 252.617 134.045C250.894 125.729 245.951 110.563 244.829 106.557C242.369 97.88 241.785 98.0803 237.026 95.6527Z" fill="#FFA8A7"/>
<path d="M235.551 94.4109C235.551 94.4109 240.278 95.7408 242.313 98.4168C244.348 101.093 252.2 126.979 252.2 126.979C250.148 128.691 247.747 129.936 245.166 130.627C242.584 131.319 239.883 131.441 237.25 130.985C237.25 130.985 230.937 113.078 230.264 108.295C229.07 100.884 232.691 95.0518 235.551 94.4109Z" fill="#BA68C8"/>
<path d="M210.042 111.78C209.657 109.777 210.907 108.696 212.838 109.377C213.86 109.797 214.769 110.45 215.493 111.285C216.216 112.12 216.734 113.113 217.004 114.184C217.389 116.211 210.419 113.767 210.042 111.78Z" fill="#BA68C8"/>
<path d="M223.253 118.022L217.573 114.408C217.862 115.947 215.786 115.73 213.92 115.081C212.053 114.432 209.77 113.118 209.473 111.58L204.522 111.516C204.065 111.516 204.057 112.109 204.522 112.598C205.748 113.968 208.6 116.395 214.593 118.486C220.586 120.577 222.885 119.928 223.75 119.288C224.031 119.047 223.774 118.35 223.253 118.022Z" fill="#BA68C8"/>
<defs>
<filter id="filter0_d_15_387" x="0" y="156.171" width="365" height="200.234" filterUnits="userSpaceOnUse" color-interpolation-filters="sRGB">
<feFlood flood-opacity="0" result="BackgroundImageFix"/>
<feColorMatrix in="SourceAlpha" type="matrix" values="0 0 0 0 0 0 0 0 0 0 0 0 0 0 0 0 0 0 127 0" result="hardAlpha"/>
<feOffset dx="-4" dy="10"/>
<feGaussianBlur stdDeviation="5"/>
<feComposite in2="hardAlpha" operator="out"/>
<feColorMatrix type="matrix" values="0 0 0 0 0 0 0 0 0 0 0 0 0 0 0 0 0 0 0.25 0"/>
<feBlend mode="normal" in2="BackgroundImageFix" result="effect1_dropShadow_15_387"/>
<feBlend mode="normal" in="SourceGraphic" in2="effect1_dropShadow_15_387" result="shape"/>
</filter>
</defs>
</svg>
